Exo2-BoldItalic.ufo
<glyph name="exclam" format="2">
  <advance width="328"/>
  <unicode hex="0021"/>
  <outline>
    <contour>
      <point x="324" y="695" type="line"/>
      <point x="116" y="695" type="line"/>
      <point x="84" y="461" type="line"/>
      <point x="73" y="227" type="line"/>
      <point x="237" y="227" type="line"/>
      <point x="292" y="461" type="line"/>
    </contour>
    <contour>
      <point x="164" y="185" type="curve" smooth="yes"/>
      <point x="124" y="185" type="line" smooth="yes"/>
      <point x="76" y="185"/>
      <point x="50" y="164"/>
      <point x="43" y="117" type="curve" smooth="yes"/>
      <point x="38" y="76" type="line" smooth="yes"/>
      <point x="32" y="27"/>
      <point x="55" y="0"/>
      <point x="107" y="0" type="curve" smooth="yes"/>
      <point x="147" y="0" type="line" smooth="yes"/>
      <point x="198" y="0"/>
      <point x="221" y="21"/>
      <point x="227" y="68" type="curve" smooth="yes"/>
      <point x="233" y="109" type="line" smooth="yes"/>
      <point x="240" y="159"/>
      <point x="211" y="185"/>
    </contour>
  </outline>
</glyph>
<glyph name="dollar" format="2">
  <advance width="583"/>
  <unicode hex="0024"/>
  <outline>
    <contour>
      <point x="348" y="704" type="curve" smooth="yes"/>
      <point x="163" y="704"/>
      <point x="75" y="661"/>
      <point x="58" y="509" type="curve" smooth="yes"/>
      <point x="48" y="424"/>
      <point x="67" y="356"/>
      <point x="180" y="297" type="curve" smooth="yes"/>
      <point x="301" y="235" type="line" smooth="yes"/>
      <point x="327" y="223"/>
      <point x="334" y="213"/>
      <point x="330" y="196" type="curve" smooth="yes"/>
      <point x="325" y="175"/>
      <point x="309" y="167"/>
      <point x="254" y="167" type="curve" smooth="yes"/>
      <point x="229" y="167"/>
      <point x="132" y="169"/>
      <point x="21" y="172" type="curve"/>
      <point x="0" y="21" type="line"/>
      <point x="102" y="-6"/>
      <point x="207" y="-14"/>
      <point x="264" y="-14" type="curve" smooth="yes"/>
      <point x="458" y="-14"/>
      <point x="527" y="30"/>
      <point x="545" y="189" type="curve" smooth="yes"/>
      <point x="556" y="291"/>
      <point x="533" y="348"/>
      <point x="423" y="404" type="curve" smooth="yes"/>
      <point x="313" y="459" type="line" smooth="yes"/>
      <point x="274" y="478"/>
      <point x="269" y="489"/>
      <point x="272" y="504" type="curve" smooth="yes"/>
      <point x="276" y="526"/>
      <point x="291" y="532"/>
      <point x="332" y="532" type="curve" smooth="yes"/>
      <point x="415" y="532"/>
      <point x="510" y="531"/>
      <point x="569" y="530" type="curve"/>
      <point x="589" y="668" type="line"/>
      <point x="514" y="694"/>
      <point x="423" y="704"/>
    </contour>
    <contour>
      <point x="265" y="362" type="line"/>
      <point x="154" y="-110" type="line"/>
      <point x="209" y="-110" type="line"/>
      <point x="320" y="362" type="line"/>
    </contour>
    <contour>
      <point x="455" y="789" type="line"/>
      <point x="400" y="789" type="line"/>
      <point x="287" y="362" type="line"/>
      <point x="342" y="362" type="line"/>
    </contour>
  </outline>
</glyph>
<glyph name="percent" format="2">
  <advance width="919"/>
  <unicode hex="0025"/>
  <outline>
    <contour>
      <point x="769" y="690" type="line"/>
      <point x="639" y="690" type="line"/>
      <point x="162" y="0" type="line"/>
      <point x="292" y="0" type="line"/>
    </contour>
    <contour>
      <point x="243" y="595" type="curve" smooth="yes"/>
      <point x="268" y="595"/>
      <point x="269" y="586"/>
      <point x="261" y="506" type="curve" smooth="yes"/>
      <point x="250" y="412"/>
      <point x="246" y="401"/>
      <point x="218" y="401" type="curve" smooth="yes"/>
      <point x="192" y="401"/>
      <point x="190" y="410"/>
      <point x="201" y="490" type="curve" smooth="yes"/>
      <point x="213" y="584"/>
      <point x="217" y="595"/>
    </contour>
    <contour>
      <point x="247" y="704" type="curve" smooth="yes"/>
      <point x="119" y="704"/>
      <point x="72" y="661"/>
      <point x="50" y="506" type="curve" smooth="yes"/>
      <point x="27" y="343"/>
      <point x="83" y="292"/>
      <point x="213" y="292" type="curve" smooth="yes"/>
      <point x="343" y="292"/>
      <point x="390" y="335"/>
      <point x="412" y="490" type="curve" smooth="yes"/>
      <point x="435" y="653"/>
      <point x="379" y="704"/>
    </contour>
    <contour>
      <point x="714" y="289" type="curve" smooth="yes"/>
      <point x="739" y="289"/>
      <point x="740" y="280"/>
      <point x="732" y="200" type="curve" smooth="yes"/>
      <point x="721" y="106"/>
      <point x="717" y="95"/>
      <point x="689" y="95" type="curve" smooth="yes"/>
      <point x="663" y="95"/>
      <point x="661" y="104"/>
      <point x="672" y="184" type="curve" smooth="yes"/>
      <point x="684" y="278"/>
      <point x="688" y="289"/>
    </contour>
    <contour>
      <point x="718" y="398" type="curve" smooth="yes"/>
      <point x="590" y="398"/>
      <point x="543" y="355"/>
      <point x="521" y="200" type="curve" smooth="yes"/>
      <point x="498" y="37"/>
      <point x="554" y="-14"/>
      <point x="684" y="-14" type="curve" smooth="yes"/>
      <point x="814" y="-14"/>
      <point x="861" y="29"/>
      <point x="883" y="184" type="curve" smooth="yes"/>
      <point x="906" y="347"/>
      <point x="850" y="398"/>
    </contour>
  </outline>
</glyph>
<glyph name="one" format="2">
  <advance width="469"/>
  <unicode hex="0031"/>
  <outline>
    <contour>
      <point x="453" y="690" type="line"/>
      <point x="244" y="690" type="line"/>
      <point x="43" y="619" type="line"/>
      <point x="61" y="490" type="line"/>
      <point x="223" y="525" type="line"/>
      <point x="213" y="495"/>
      <point x="208" y="466"/>
      <point x="204" y="436" type="curve" smooth="yes"/>
      <point x="140" y="0" type="line"/>
      <point x="356" y="0" type="line"/>
    </contour>
  </outline>
</glyph>
<glyph name="three" format="2">
  <advance width="571"/>
  <unicode hex="0033"/>
  <outline>
    <contour>
      <point x="321" y="704" type="curve" smooth="yes"/>
      <point x="261" y="704"/>
      <point x="175" y="699"/>
      <point x="91" y="686" type="curve"/>
      <point x="91" y="539" type="line"/>
      <point x="142" y="539"/>
      <point x="215" y="539"/>
      <point x="290" y="539" type="curve" smooth="yes"/>
      <point x="339" y="539"/>
      <point x="348" y="527"/>
      <point x="348" y="502" type="curve" smooth="yes"/>
      <point x="348" y="442"/>
      <point x="334" y="421"/>
      <point x="277" y="421" type="curve" smooth="yes"/>
      <point x="136" y="421" type="line"/>
      <point x="119" y="291" type="line"/>
      <point x="264" y="291" type="line" smooth="yes"/>
      <point x="302" y="291"/>
      <point x="319" y="282"/>
      <point x="319" y="257" type="curve" smooth="yes"/>
      <point x="319" y="183"/>
      <point x="274" y="152"/>
      <point x="193" y="152" type="curve" smooth="yes"/>
      <point x="137" y="152"/>
      <point x="99" y="151"/>
      <point x="8" y="157" type="curve"/>
      <point x="-6" y="6" type="line"/>
      <point x="67" y="-5"/>
      <point x="154" y="-14"/>
      <point x="223" y="-14" type="curve" smooth="yes"/>
      <point x="415" y="-14"/>
      <point x="529" y="57"/>
      <point x="529" y="240" type="curve" smooth="yes"/>
      <point x="529" y="309"/>
      <point x="498" y="353"/>
      <point x="413" y="364" type="curve"/>
      <point x="414" y="368" type="line"/>
      <point x="507" y="379"/>
      <point x="552" y="454"/>
      <point x="552" y="558" type="curve" smooth="yes"/>
      <point x="552" y="671"/>
      <point x="472" y="704"/>
    </contour>
  </outline>
</glyph>
<glyph name="five" format="2">
  <advance width="559"/>
  <unicode hex="0035"/>
  <outline>
    <contour>
      <point x="564" y="690" type="line"/>
      <point x="121" y="690" type="line"/>
      <point x="62" y="390" type="line" smooth="yes"/>
      <point x="54" y="350"/>
      <point x="80" y="316"/>
      <point x="122" y="310" type="curve" smooth="yes"/>
      <point x="234" y="293" type="line" smooth="yes"/>
      <point x="289" y="286"/>
      <point x="312" y="280"/>
      <point x="312" y="253" type="curve" smooth="yes"/>
      <point x="312" y="185"/>
      <point x="259" y="165"/>
      <point x="188" y="161" type="curve" smooth="yes"/>
      <point x="142" y="158"/>
      <point x="84" y="161"/>
      <point x="17" y="167" type="curve"/>
      <point x="-10" y="6" type="line"/>
      <point x="73" y="-5"/>
      <point x="152" y="-16"/>
      <point x="227" y="-12" type="curve" smooth="yes"/>
      <point x="413" y="-3"/>
      <point x="527" y="92"/>
      <point x="527" y="263" type="curve" smooth="yes"/>
      <point x="527" y="338"/>
      <point x="488" y="425"/>
      <point x="337" y="446" type="curve" smooth="yes"/>
      <point x="254" y="456" type="line"/>
      <point x="272" y="535" type="line"/>
      <point x="536" y="535" type="line"/>
    </contour>
  </outline>
</glyph>
<glyph name="at" format="2">
  <advance width="822"/>
  <unicode hex="0040"/>
  <outline>
    <contour>
      <point x="427" y="655" type="curve" smooth="yes"/>
      <point x="321" y="654"/>
      <point x="196" y="651"/>
      <point x="87" y="645" type="curve"/>
      <point x="78" y="515" type="line"/>
      <point x="425" y="515" type="line" smooth="yes"/>
      <point x="617" y="515"/>
      <point x="640" y="512"/>
      <point x="608" y="328" type="curve" smooth="yes"/>
      <point x="577" y="151"/>
      <point x="577" y="121"/>
      <point x="517" y="121" type="curve" smooth="yes"/>
      <point x="500" y="121"/>
      <point x="492" y="131"/>
      <point x="496" y="156" type="curve" smooth="yes"/>
      <point x="540" y="427" type="line"/>
      <point x="354" y="427" type="line"/>
      <point x="310" y="161" type="line" smooth="yes"/>
      <point x="299" y="93"/>
      <point x="330" y="-14"/>
      <point x="490" y="-14" type="curve" smooth="yes"/>
      <point x="724" y="-14"/>
      <point x="750" y="69"/>
      <point x="787" y="320" type="curve" smooth="yes"/>
      <point x="830" y="615"/>
      <point x="760" y="657"/>
    </contour>
    <contour>
      <point x="274" y="455" type="curve" smooth="yes"/>
      <point x="147" y="455"/>
      <point x="61" y="429"/>
      <point x="29" y="231" type="curve" smooth="yes"/>
      <point x="2" y="65"/>
      <point x="58" y="-12"/>
      <point x="170" y="-12" type="curve" smooth="yes"/>
      <point x="292" y="-12"/>
      <point x="350" y="109"/>
      <point x="390" y="236" type="curve"/>
      <point x="361" y="292" type="line"/>
      <point x="311" y="186"/>
      <point x="285" y="139"/>
      <point x="242" y="139" type="curve" smooth="yes"/>
      <point x="213" y="139"/>
      <point x="200" y="143"/>
      <point x="214" y="224" type="curve" smooth="yes"/>
      <point x="232" y="325"/>
      <point x="259" y="328"/>
      <point x="294" y="328" type="curve" smooth="yes"/>
      <point x="322" y="328"/>
      <point x="366" y="327"/>
      <point x="457" y="325" type="curve"/>
      <point x="540" y="427" type="line"/>
      <point x="445" y="443"/>
      <point x="362" y="455"/>
    </contour>
  </outline>
</glyph>
<glyph name="B" format="2">
  <advance width="657"/>
  <unicode hex="0042"/>
  <outline>
    <contour>
      <point x="391" y="698" type="curve" smooth="yes"/>
      <point x="270" y="698"/>
      <point x="194" y="697"/>
      <point x="108" y="690" type="curve"/>
      <point x="110" y="545" type="line"/>
      <point x="185" y="549"/>
      <point x="254" y="548"/>
      <point x="384" y="548" type="curve" smooth="yes"/>
      <point x="419" y="548"/>
      <point x="428" y="535"/>
      <point x="422" y="495" type="curve" smooth="yes"/>
      <point x="413" y="435"/>
      <point x="400" y="423"/>
      <point x="349" y="423" type="curve" smooth="yes"/>
      <point x="84" y="423" type="line"/>
      <point x="67" y="292" type="line"/>
      <point x="345" y="292" type="line" smooth="yes"/>
      <point x="395" y="292"/>
      <point x="405" y="280"/>
      <point x="397" y="224" type="curve" smooth="yes"/>
      <point x="387" y="156"/>
      <point x="370" y="142"/>
      <point x="306" y="142" type="curve" smooth="yes"/>
      <point x="180" y="142"/>
      <point x="74" y="143"/>
      <point x="40" y="145" type="curve"/>
      <point x="11" y="0" type="line"/>
      <point x="109" y="-7"/>
      <point x="192" y="-8"/>
      <point x="348" y="-8" type="curve" smooth="yes"/>
      <point x="520" y="-8"/>
      <point x="595" y="26"/>
      <point x="614" y="164" type="curve" smooth="yes"/>
      <point x="630" y="278"/>
      <point x="595" y="346"/>
      <point x="486" y="355" type="curve"/>
      <point x="487" y="361" type="line"/>
      <point x="583" y="369"/>
      <point x="616" y="415"/>
      <point x="629" y="510" type="curve" smooth="yes"/>
      <point x="648" y="656"/>
      <point x="574" y="698"/>
    </contour>
    <contour>
      <point x="320" y="690" type="line"/>
      <point x="108" y="690" type="line"/>
      <point x="11" y="0" type="line"/>
      <point x="223" y="0" type="line"/>
    </contour>
  </outline>
</glyph>
<glyph name="I" format="2">
  <advance width="322"/>
  <unicode hex="0049"/>
  <anchor x="119" y="0" name="bottom"/>
  <anchor x="199" y="0" name="ogonek"/>
  <anchor x="225" y="735" name="top"/>
  <outline>
    <contour>
      <point x="325" y="690" type="line"/>
      <point x="109" y="690" type="line"/>
      <point x="12" y="0" type="line"/>
      <point x="228" y="0" type="line"/>
    </contour>
  </outline>
</glyph>
<glyph name="J" format="2">
  <advance width="395"/>
  <unicode hex="004A"/>
  <anchor x="294" y="735" name="top"/>
  <outline>
    <contour>
      <point x="400" y="690" type="line"/>
      <point x="184" y="690" type="line"/>
      <point x="111" y="187" type="line" smooth="yes"/>
      <point x="108" y="162"/>
      <point x="90" y="148"/>
      <point x="47" y="148" type="curve" smooth="yes"/>
      <point x="10" y="148" type="line"/>
      <point x="-24" y="14" type="line"/>
      <point x="7" y="-4"/>
      <point x="88" y="-14"/>
      <point x="138" y="-14" type="curve" smooth="yes"/>
      <point x="239" y="-14"/>
      <point x="309" y="33"/>
      <point x="322" y="123" type="curve" smooth="yes"/>
    </contour>
  </outline>
</glyph>
<glyph name="M" format="2">
  <advance width="947"/>
  <unicode hex="004D"/>
  <guideline x="342" y="437" angle="0"/>
  <anchor x="435" y="0" name="bottom"/>
  <outline>
    <contour>
      <point x="857" y="690" type="curve" smooth="yes"/>
      <point x="664" y="690" type="line" smooth="yes"/>
      <point x="618" y="690"/>
      <point x="590" y="672"/>
      <point x="578" y="627" type="curve" smooth="yes"/>
      <point x="494" y="343" type="line" smooth="yes"/>
      <point x="485" y="310"/>
      <point x="477" y="281"/>
      <point x="469" y="242" type="curve"/>
      <point x="459" y="242" type="line"/>
      <point x="462" y="278"/>
      <point x="463" y="311"/>
      <point x="461" y="345" type="curve" smooth="yes"/>
      <point x="449" y="619" type="line" smooth="yes"/>
      <point x="448" y="664"/>
      <point x="419" y="690"/>
      <point x="374" y="690" type="curve" smooth="yes"/>
      <point x="190" y="690" type="line" smooth="yes"/>
      <point x="141" y="690"/>
      <point x="120" y="668"/>
      <point x="111" y="619" type="curve" smooth="yes"/>
      <point x="0" y="0" type="line"/>
      <point x="195" y="0" type="line"/>
      <point x="286" y="528" type="line"/>
      <point x="302" y="528" type="line"/>
      <point x="321" y="180" type="line" smooth="yes"/>
      <point x="323" y="136"/>
      <point x="352" y="110"/>
      <point x="398" y="110" type="curve" smooth="yes"/>
      <point x="508" y="110" type="line" smooth="yes"/>
      <point x="555" y="110"/>
      <point x="582" y="128"/>
      <point x="595" y="172" type="curve" smooth="yes"/>
      <point x="711" y="528" type="line"/>
      <point x="725" y="528" type="line"/>
      <point x="671" y="0" type="line"/>
      <point x="866" y="0" type="line"/>
      <point x="928" y="611" type="line" smooth="yes"/>
      <point x="933" y="660"/>
      <point x="906" y="690"/>
    </contour>
  </outline>
</glyph>
<glyph name="S" format="2">
  <advance width="602"/>
  <unicode hex="0053"/>
  <anchor x="254" y="-20" name="bottom"/>
  <anchor x="363" y="735" name="top"/>
  <outline>
    <contour>
      <point x="357" y="704" type="curve" smooth="yes"/>
      <point x="169" y="704"/>
      <point x="79" y="661"/>
      <point x="61" y="509" type="curve" smooth="yes"/>
      <point x="51" y="424"/>
      <point x="72" y="354"/>
      <point x="188" y="297" type="curve" smooth="yes"/>
      <point x="314" y="235" type="line" smooth="yes"/>
      <point x="342" y="221"/>
      <point x="351" y="213"/>
      <point x="347" y="196" type="curve" smooth="yes"/>
      <point x="342" y="175"/>
      <point x="323" y="167"/>
      <point x="262" y="167" type="curve" smooth="yes"/>
      <point x="236" y="167"/>
      <point x="140" y="169"/>
      <point x="24" y="172" type="curve"/>
      <point x="4" y="21" type="line"/>
      <point x="109" y="-6"/>
      <point x="215" y="-14"/>
      <point x="273" y="-14" type="curve" smooth="yes"/>
      <point x="472" y="-14"/>
      <point x="543" y="30"/>
      <point x="561" y="189" type="curve" smooth="yes"/>
      <point x="572" y="291"/>
      <point x="549" y="350"/>
      <point x="435" y="404" type="curve" smooth="yes"/>
      <point x="319" y="459" type="line" smooth="yes"/>
      <point x="279" y="478"/>
      <point x="272" y="489"/>
      <point x="275" y="504" type="curve" smooth="yes"/>
      <point x="280" y="526"/>
      <point x="297" y="532"/>
      <point x="343" y="532" type="curve" smooth="yes"/>
      <point x="428" y="532"/>
      <point x="524" y="531"/>
      <point x="585" y="530" type="curve"/>
      <point x="604" y="668" type="line"/>
      <point x="527" y="694"/>
      <point x="434" y="704"/>
    </contour>
  </outline>
</glyph>
<glyph name="U" format="2">
  <advance width="700"/>
  <unicode hex="0055"/>
  <anchor x="303" y="-20" name="bottom"/>
  <anchor x="354" y="-9" name="ogonek"/>
  <anchor x="412" y="735" name="top"/>
  <outline>
    <contour>
      <point x="710" y="690" type="line"/>
      <point x="493" y="690" type="line"/>
      <point x="436" y="289" type="line" smooth="yes"/>
      <point x="418" y="178"/>
      <point x="403" y="147"/>
      <point x="327" y="147" type="curve" smooth="yes"/>
      <point x="254" y="147"/>
      <point x="245" y="176"/>
      <point x="261" y="281" type="curve" smooth="yes"/>
      <point x="319" y="690" type="line"/>
      <point x="103" y="690" type="line"/>
      <point x="45" y="289" type="line" smooth="yes"/>
      <point x="16" y="69"/>
      <point x="112" y="-14"/>
      <point x="322" y="-14" type="curve" smooth="yes"/>
      <point x="542" y="-14"/>
      <point x="620" y="61"/>
      <point x="651" y="281" type="curve" smooth="yes"/>
    </contour>
  </outline>
</glyph>
<glyph name="X" format="2">
  <advance width="672"/>
  <unicode hex="0058"/>
  <outline>
    <contour>
      <point x="277" y="690" type="line"/>
      <point x="68" y="690" type="line"/>
      <point x="172" y="352" type="line"/>
      <point x="-46" y="0" type="line"/>
      <point x="184" y="0" type="line"/>
      <point x="372" y="332" type="line"/>
    </contour>
    <contour>
      <point x="448" y="414" type="line"/>
      <point x="241" y="414" type="line"/>
      <point x="224" y="294" type="line"/>
      <point x="431" y="294" type="line"/>
    </contour>
    <contour>
      <point x="720" y="690" type="line"/>
      <point x="499" y="690" type="line"/>
      <point x="321" y="374" type="line"/>
      <point x="420" y="0" type="line"/>
      <point x="633" y="0" type="line"/>
      <point x="516" y="352" type="line"/>
    </contour>
  </outline>
</glyph>
<glyph name="bracketleft" format="2">
  <advance width="364"/>
  <unicode hex="005B"/>
  <outline>
    <contour>
      <point x="407" y="768" type="line"/>
      <point x="224" y="768" type="line" smooth="yes"/>
      <point x="164" y="768"/>
      <point x="124" y="731"/>
      <point x="115" y="671" type="curve" smooth="yes"/>
      <point x="12" y="-60" type="line" smooth="yes"/>
      <point x="1" y="-140"/>
      <point x="45" y="-165"/>
      <point x="105" y="-165" type="curve" smooth="yes"/>
      <point x="276" y="-165" type="line"/>
      <point x="294" y="-37" type="line"/>
      <point x="233" y="-37" type="line" smooth="yes"/>
      <point x="218" y="-37"/>
      <point x="212" y="-30"/>
      <point x="214" y="-14" type="curve" smooth="yes"/>
      <point x="303" y="614" type="line" smooth="yes"/>
      <point x="306" y="634"/>
      <point x="314" y="640"/>
      <point x="335" y="640" type="curve" smooth="yes"/>
      <point x="389" y="640" type="line"/>
    </contour>
  </outline>
</glyph>
<glyph name="underscore" format="2">
  <advance width="451.281"/>
  <unicode hex="005F"/>
  <outline>
    <contour>
      <point x="416" y="0" type="line"/>
      <point x="-35" y="0" type="line"/>
      <point x="-52" y="-122" type="line"/>
      <point x="399" y="-122" type="line"/>
    </contour>
  </outline>
</glyph>
<glyph name="c" format="2">
  <advance width="536"/>
  <unicode hex="0063"/>
  <anchor x="237" y="-12" name="bottom"/>
  <anchor x="325" y="547" name="top"/>
  <outline>
    <contour>
      <point x="303" y="514" type="curve" smooth="yes"/>
      <point x="115" y="514"/>
      <point x="46" y="438"/>
      <point x="21" y="259" type="curve" smooth="yes"/>
      <point x="-6" y="64"/>
      <point x="89" y="-12"/>
      <point x="265" y="-12" type="curve" smooth="yes"/>
      <point x="337" y="-12"/>
      <point x="420" y="-3"/>
      <point x="485" y="28" type="curve"/>
      <point x="470" y="161" type="line"/>
      <point x="407" y="154"/>
      <point x="342" y="154"/>
      <point x="302" y="154" type="curve" smooth="yes"/>
      <point x="242" y="154"/>
      <point x="228" y="170"/>
      <point x="240" y="253" type="curve" smooth="yes"/>
      <point x="250" y="323"/>
      <point x="268" y="347"/>
      <point x="328" y="347" type="curve" smooth="yes"/>
      <point x="370" y="347"/>
      <point x="429" y="347"/>
      <point x="504" y="347" type="curve"/>
      <point x="532" y="475" type="line"/>
      <point x="469" y="502"/>
      <point x="380" y="514"/>
    </contour>
  </outline>
</glyph>
<glyph name="d" format="2">
  <advance width="617"/>
  <unicode hex="0064"/>
  <anchor x="297" y="-12" name="bottom"/>
  <anchor x="743" y="508" name="top"/>
  <outline>
    <contour>
      <point x="236" y="514" type="curve" smooth="yes"/>
      <point x="132" y="514"/>
      <point x="50" y="465"/>
      <point x="24" y="264" type="curve" smooth="yes"/>
      <point x="1" y="80"/>
      <point x="51" y="-12"/>
      <point x="175" y="-12" type="curve" smooth="yes"/>
      <point x="283" y="-12"/>
      <point x="373" y="89"/>
      <point x="406" y="126" type="curve"/>
      <point x="368" y="212" type="line"/>
      <point x="340" y="190"/>
      <point x="306" y="165"/>
      <point x="264" y="162" type="curve" smooth="yes"/>
      <point x="223" y="159"/>
      <point x="229" y="198"/>
      <point x="238" y="270" type="curve" smooth="yes"/>
      <point x="251" y="371"/>
      <point x="268" y="387"/>
      <point x="327" y="387" type="curve" smooth="yes"/>
      <point x="393" y="387"/>
      <point x="426" y="387"/>
      <point x="473" y="387" type="curve"/>
      <point x="492" y="465" type="line"/>
      <point x="444" y="500"/>
      <point x="345" y="514"/>
    </contour>
    <contour>
      <point x="631" y="700" type="line"/>
      <point x="421" y="700" type="line"/>
      <point x="403" y="605" type="line" smooth="yes"/>
      <point x="397" y="567"/>
      <point x="396" y="533"/>
      <point x="396" y="500" type="curve"/>
      <point x="387" y="484" type="line"/>
      <point x="341" y="145" type="line"/>
      <point x="360" y="134" type="line"/>
      <point x="366" y="0" type="line"/>
      <point x="532" y="0" type="line"/>
    </contour>
  </outline>
</glyph>
<glyph name="e" format="2">
  <advance width="590"/>
  <unicode hex="0065"/>
  <anchor x="278" y="-12" name="bottom"/>
  <anchor x="525" y="33" name="ogonek"/>
  <anchor x="346" y="547" name="top"/>
  <outline>
    <contour>
      <point x="326" y="514" type="curve" smooth="yes"/>
      <point x="148" y="514"/>
      <point x="43" y="468"/>
      <point x="21" y="254" type="curve" smooth="yes"/>
      <point x="4" y="83"/>
      <point x="61" y="-12"/>
      <point x="289" y="-12" type="curve" smooth="yes"/>
      <point x="368" y="-12"/>
      <point x="455" y="-1"/>
      <point x="526" y="32" type="curve"/>
      <point x="512" y="160" type="line"/>
      <point x="451" y="153"/>
      <point x="348" y="149"/>
      <point x="307" y="149" type="curve" smooth="yes"/>
      <point x="238" y="149"/>
      <point x="226" y="162"/>
      <point x="242" y="261" type="curve" smooth="yes"/>
      <point x="258" y="357"/>
      <point x="271" y="378"/>
      <point x="328" y="379" type="curve" smooth="yes"/>
      <point x="369" y="380"/>
      <point x="376" y="371"/>
      <point x="374" y="349" type="curve" smooth="yes"/>
      <point x="370" y="311"/>
      <point x="347" y="307"/>
      <point x="306" y="303" type="curve" smooth="yes"/>
      <point x="108" y="283" type="line"/>
      <point x="95" y="184" type="line"/>
      <point x="361" y="204" type="line" smooth="yes"/>
      <point x="496" y="214"/>
      <point x="561" y="238"/>
      <point x="574" y="328" type="curve" smooth="yes"/>
      <point x="592" y="449"/>
      <point x="533" y="514"/>
    </contour>
  </outline>
</glyph>
<glyph name="f" format="2">
  <advance width="423"/>
  <unicode hex="0066"/>
  <outline>
    <contour>
      <point x="321" y="724" type="curve" smooth="yes"/>
      <point x="195" y="724"/>
      <point x="145" y="659"/>
      <point x="131" y="565" type="curve" smooth="yes"/>
      <point x="50" y="5" type="line" smooth="yes"/>
      <point x="43" y="-37"/>
      <point x="28" y="-51"/>
      <point x="-14" y="-51" type="curve" smooth="yes"/>
      <point x="-63" y="-51" type="line"/>
      <point x="-95" y="-176" type="line"/>
      <point x="-25" y="-186"/>
      <point x="21" y="-191"/>
      <point x="60" y="-191" type="curve" smooth="yes"/>
      <point x="186" y="-191"/>
      <point x="236" y="-126"/>
      <point x="250" y="-32" type="curve" smooth="yes"/>
      <point x="333" y="528" type="line" smooth="yes"/>
      <point x="339" y="570"/>
      <point x="354" y="584"/>
      <point x="394" y="584" type="curve" smooth="yes"/>
      <point x="474" y="584" type="line"/>
      <point x="506" y="709" type="line"/>
      <point x="457" y="719"/>
      <point x="366" y="724"/>
    </contour>
    <contour>
      <point x="446" y="500" type="line"/>
      <point x="123" y="500" type="line"/>
      <point x="37" y="495" type="line"/>
      <point x="22" y="374" type="line"/>
      <point x="429" y="374" type="line"/>
    </contour>
  </outline>
</glyph>
<glyph name="h" format="2">
  <advance width="619"/>
  <unicode hex="0068"/>
  <anchor x="269" y="-5" name="bottom"/>
  <anchor x="276" y="240" name="center"/>
  <anchor x="208" y="720" name="top"/>
  <outline>
    <contour>
      <point x="451" y="514" type="curve" smooth="yes"/>
      <point x="380" y="514"/>
      <point x="293" y="471"/>
      <point x="207" y="374" type="curve"/>
      <point x="242" y="287" type="line"/>
      <point x="293" y="327"/>
      <point x="320" y="337"/>
      <point x="352" y="337" type="curve" smooth="yes"/>
      <point x="371" y="337"/>
      <point x="375" y="333"/>
      <point x="371" y="311" type="curve" smooth="yes"/>
      <point x="327" y="0" type="line"/>
      <point x="537" y="0" type="line"/>
      <point x="589" y="370" type="line"/>
      <point x="602" y="462"/>
      <point x="553" y="514"/>
    </contour>
    <contour>
      <point x="311" y="700" type="line"/>
      <point x="101" y="700" type="line"/>
      <point x="3" y="0" type="line"/>
      <point x="213" y="0" type="line"/>
      <point x="262" y="356" type="line"/>
      <point x="237" y="365" type="line"/>
      <point x="254" y="404"/>
      <point x="280" y="475"/>
      <point x="290" y="547" type="curve" smooth="yes"/>
    </contour>
  </outline>
</glyph>
<glyph name="l" format="2">
  <advance width="360"/>
  <unicode hex="006C"/>
  <anchor x="165" y="-5" name="bottom"/>
  <anchor x="219" y="740" name="top"/>
  <outline>
    <contour>
      <point x="311" y="700" type="line"/>
      <point x="102" y="700" type="line"/>
      <point x="21" y="130" type="line" smooth="yes"/>
      <point x="10" y="42"/>
      <point x="72" y="-14"/>
      <point x="184" y="-14" type="curve" smooth="yes"/>
      <point x="217" y="-14"/>
      <point x="295" y="-8"/>
      <point x="327" y="10" type="curve"/>
      <point x="315" y="146" type="line"/>
      <point x="275" y="146" type="line" smooth="yes"/>
      <point x="239" y="146"/>
      <point x="231" y="152"/>
      <point x="236" y="178" type="curve" smooth="yes"/>
    </contour>
  </outline>
</glyph>
<glyph name="n" format="2">
  <advance width="619"/>
  <unicode hex="006E"/>
  <guideline x="242" y="197" angle="82"/>
  <anchor x="277" y="0" name="bottom"/>
  <anchor x="347" y="547" name="top"/>
  <outline>
    <contour>
      <point x="460" y="514" type="curve" smooth="yes"/>
      <point x="372" y="514"/>
      <point x="273" y="459"/>
      <point x="207" y="374" type="curve"/>
      <point x="242" y="287" type="line"/>
      <point x="288" y="325"/>
      <point x="319" y="335"/>
      <point x="343" y="337" type="curve" smooth="yes"/>
      <point x="369" y="340"/>
      <point x="374" y="329"/>
      <point x="370" y="302" type="curve" smooth="yes"/>
      <point x="327" y="0" type="line"/>
      <point x="538" y="0" type="line"/>
      <point x="590" y="370" type="line" smooth="yes"/>
      <point x="604" y="466"/>
      <point x="542" y="514"/>
    </contour>
    <contour>
      <point x="236" y="500" type="line"/>
      <point x="72" y="500" type="line"/>
      <point x="3" y="0" type="line"/>
      <point x="213" y="0" type="line"/>
      <point x="263" y="354" type="line"/>
      <point x="243" y="366" type="line"/>
    </contour>
  </outline>
</glyph>
<glyph name="q" format="2">
  <advance width="617"/>
  <unicode hex="0071"/>
  <outline>
    <contour>
      <point x="313" y="514" type="curve" smooth="yes"/>
      <point x="88" y="514"/>
      <point x="45" y="405"/>
      <point x="23" y="254" type="curve" smooth="yes"/>
      <point x="-4" y="67"/>
      <point x="50" y="-12"/>
      <point x="183" y="-12" type="curve" smooth="yes"/>
      <point x="252" y="-12"/>
      <point x="349" y="43"/>
      <point x="408" y="129" type="curve"/>
      <point x="369" y="210" type="line"/>
      <point x="338" y="193"/>
      <point x="307" y="162"/>
      <point x="267" y="162" type="curve" smooth="yes"/>
      <point x="226" y="162"/>
      <point x="227" y="191"/>
      <point x="237" y="259" type="curve" smooth="yes"/>
      <point x="251" y="352"/>
      <point x="274" y="369"/>
      <point x="325" y="373" type="curve" smooth="yes"/>
      <point x="346" y="374"/>
      <point x="407" y="370"/>
      <point x="426" y="361" type="curve"/>
      <point x="600" y="472" type="line"/>
      <point x="543" y="501"/>
      <point x="394" y="514"/>
    </contour>
    <contour>
      <point x="390" y="482" type="line"/>
      <point x="335" y="106" type="line"/>
      <point x="353" y="98" type="line"/>
      <point x="330" y="46"/>
      <point x="318" y="-18"/>
      <point x="311" y="-75" type="curve" smooth="yes"/>
      <point x="297" y="-180" type="line"/>
      <point x="507" y="-180" type="line"/>
      <point x="600" y="472" type="line"/>
    </contour>
  </outline>
</glyph>
<glyph name="r" format="2">
  <advance width="452"/>
  <unicode hex="0072"/>
  <anchor x="110" y="0" name="bottom"/>
  <anchor x="285" y="547" name="top"/>
  <outline>
    <contour>
      <point x="237" y="500" type="line"/>
      <point x="73" y="500" type="line"/>
      <point x="3" y="0" type="line"/>
      <point x="214" y="0" type="line"/>
      <point x="266" y="386" type="line"/>
      <point x="247" y="398" type="line"/>
    </contour>
    <contour>
      <point x="479" y="514" type="line"/>
      <point x="443" y="514" type="line"/>
      <point x="379" y="514"/>
      <point x="307" y="487"/>
      <point x="234" y="424" type="curve"/>
      <point x="242" y="307" type="line"/>
      <point x="314" y="319"/>
      <point x="353" y="322"/>
      <point x="389" y="322" type="curve" smooth="yes"/>
      <point x="436" y="322" type="line"/>
    </contour>
  </outline>
</glyph>
<glyph name="t" format="2">
  <advance width="439"/>
  <unicode hex="0074"/>
  <anchor x="219" y="-19" name="bottom"/>
  <anchor x="222" y="302" name="center"/>
  <anchor x="257" y="649" name="top"/>
  <outline>
    <contour>
      <point x="354" y="631" type="line"/>
      <point x="147" y="631" type="line"/>
      <point x="73" y="130" type="line" smooth="yes"/>
      <point x="60" y="42"/>
      <point x="121" y="-14"/>
      <point x="223" y="-14" type="curve" smooth="yes"/>
      <point x="265" y="-14"/>
      <point x="344" y="-8"/>
      <point x="390" y="10" type="curve"/>
      <point x="379" y="146" type="line"/>
      <point x="320" y="146" type="line"/>
      <point x="289" y="146"/>
      <point x="285" y="152"/>
      <point x="289" y="178" type="curve" smooth="yes"/>
    </contour>
    <contour>
      <point x="455" y="500" type="line"/>
      <point x="135" y="500" type="line"/>
      <point x="38" y="495" type="line"/>
      <point x="23" y="374" type="line"/>
      <point x="438" y="374" type="line"/>
    </contour>
  </outline>
</glyph>
<glyph name="v" format="2">
  <advance width="607"/>
  <unicode hex="0076"/>
  <outline>
    <contour>
      <point x="613" y="500" type="curve"/>
      <point x="384" y="500" type="line"/>
      <point x="380" y="458"/>
      <point x="373" y="386"/>
      <point x="359" y="318" type="curve" smooth="yes"/>
      <point x="348" y="265"/>
      <point x="338" y="227"/>
      <point x="323" y="190" type="curve" smooth="yes"/>
      <point x="302" y="138"/>
      <point x="296" y="126"/>
      <point x="268" y="126" type="curve" smooth="yes"/>
      <point x="259" y="126" type="line"/>
      <point x="262" y="500" type="line"/>
      <point x="32" y="500" type="line"/>
      <point x="85" y="53" type="line" smooth="yes"/>
      <point x="88" y="23"/>
      <point x="112" y="0"/>
      <point x="144" y="0" type="curve" smooth="yes"/>
      <point x="292" y="0" type="line" smooth="yes"/>
      <point x="386" y="0"/>
      <point x="436" y="14"/>
      <point x="487" y="104" type="curve" smooth="yes"/>
      <point x="503" y="133"/>
      <point x="536" y="199"/>
      <point x="564" y="286" type="curve" smooth="yes"/>
      <point x="583" y="344"/>
      <point x="603" y="426"/>
    </contour>
  </outline>
</glyph>
<glyph name="z" format="2">
  <advance width="538"/>
  <unicode hex="007A"/>
  <anchor x="229" y="-19" name="bottom"/>
  <anchor x="309" y="547" name="top"/>
  <outline>
    <contour>
      <point x="265" y="366" type="line"/>
      <point x="6" y="135" type="line"/>
      <point x="257" y="134" type="line"/>
      <point x="515" y="365" type="line"/>
    </contour>
    <contour>
      <point x="486" y="135" type="line"/>
      <point x="7" y="135" type="line"/>
      <point x="-10" y="0" type="line"/>
      <point x="468" y="0" type="line"/>
    </contour>
    <contour>
      <point x="531" y="500" type="line"/>
      <point x="65" y="500" type="line"/>
      <point x="47" y="365" type="line"/>
      <point x="514" y="365" type="line"/>
    </contour>
  </outline>
</glyph>
<glyph name="braceright" format="2">
  <advance width="365"/>
  <unicode hex="007D"/>
  <guideline x="313" y="38" angle="82"/>
  <outline>
    <contour>
      <point x="88" y="769" type="curve"/>
      <point x="82" y="640" type="line"/>
      <point x="129" y="640"/>
      <point x="142" y="632"/>
      <point x="138" y="606" type="curve" smooth="yes"/>
      <point x="119" y="481" type="line" smooth="yes"/>
      <point x="106" y="396"/>
      <point x="128" y="342"/>
      <point x="214" y="330" type="curve"/>
      <point x="111" y="304"/>
      <point x="85" y="257"/>
      <point x="74" y="187" type="curve" smooth="yes"/>
      <point x="48" y="2" type="line" smooth="yes"/>
      <point x="44" y="-37"/>
      <point x="26" y="-37"/>
      <point x="-16" y="-37" type="curve"/>
      <point x="-32" y="-164" type="line"/>
      <point x="150" y="-194"/>
      <point x="230" y="-126"/>
      <point x="245" y="-23" type="curve" smooth="yes"/>
      <point x="276" y="199" type="line" smooth="yes"/>
      <point x="282" y="242"/>
      <point x="303" y="248"/>
      <point x="340" y="262" type="curve"/>
      <point x="357" y="392" type="line"/>
      <point x="322" y="404"/>
      <point x="308" y="401"/>
      <point x="316" y="453" type="curve" smooth="yes"/>
      <point x="340" y="618" type="line" smooth="yes"/>
      <point x="354" y="721"/>
      <point x="282" y="799"/>
    </contour>
  </outline>
</glyph>
<glyph name="asciitilde" format="2">
  <advance width="500"/>
  <unicode hex="007E"/>
  <outline>
    <contour>
      <point x="131" y="376" type="curve" smooth="yes"/>
      <point x="78" y="376"/>
      <point x="30" y="330"/>
      <point x="35" y="211" type="curve"/>
      <point x="119" y="203" type="line"/>
      <point x="124" y="235"/>
      <point x="131" y="253"/>
      <point x="166" y="246" type="curve" smooth="yes"/>
      <point x="196" y="240"/>
      <point x="318" y="202"/>
      <point x="369" y="202" type="curve" smooth="yes"/>
      <point x="430" y="202"/>
      <point x="468" y="254"/>
      <point x="464" y="367" type="curve"/>
      <point x="380" y="375" type="line"/>
      <point x="375" y="345"/>
      <point x="369" y="324"/>
      <point x="332" y="332" type="curve" smooth="yes"/>
      <point x="306" y="338"/>
      <point x="179" y="376"/>
    </contour>
  </outline>
</glyph>
<glyph name="currency" format="2">
  <advance width="570"/>
  <unicode hex="00A4"/>
  <outline>
    <contour>
      <point x="309" y="561" type="curve" smooth="yes"/>
      <point x="200" y="561"/>
      <point x="99" y="471"/>
      <point x="83" y="360" type="curve" smooth="yes"/>
      <point x="67" y="241"/>
      <point x="153" y="143"/>
      <point x="274" y="143" type="curve" smooth="yes"/>
      <point x="383" y="143"/>
      <point x="484" y="233"/>
      <point x="499" y="344" type="curve" smooth="yes"/>
      <point x="516" y="463"/>
      <point x="430" y="561"/>
    </contour>
    <contour>
      <point x="126" y="295" type="line"/>
      <point x="21" y="200" type="line"/>
      <point x="104" y="109" type="line"/>
      <point x="208" y="204" type="line"/>
    </contour>
    <contour>
      <point x="438" y="276" type="line"/>
      <point x="347" y="193" type="line"/>
      <point x="434" y="98" type="line"/>
      <point x="526" y="181" type="line"/>
    </contour>
    <contour>
      <point x="303" y="445" type="curve" smooth="yes"/>
      <point x="354" y="445"/>
      <point x="391" y="409"/>
      <point x="383" y="351" type="curve" smooth="yes"/>
      <point x="375" y="296"/>
      <point x="334" y="261"/>
      <point x="281" y="261" type="curve" smooth="yes"/>
      <point x="232" y="261"/>
      <point x="192" y="297"/>
      <point x="200" y="355" type="curve" smooth="yes"/>
      <point x="208" y="410"/>
      <point x="244" y="445"/>
    </contour>
    <contour>
      <point x="152" y="608" type="line"/>
      <point x="59" y="525" type="line"/>
      <point x="147" y="428" type="line"/>
      <point x="239" y="511" type="line"/>
    </contour>
    <contour>
      <point x="483" y="602" type="line"/>
      <point x="390" y="517" type="line"/>
      <point x="473" y="426" type="line"/>
      <point x="566" y="511" type="line"/>
    </contour>
  </outline>
</glyph>
<glyph name="registered" format="2">
  <advance width="494"/>
  <unicode hex="00AE"/>
  <outline>
    <contour>
      <point x="303" y="704" type="curve" smooth="yes"/>
      <point x="163" y="704"/>
      <point x="71" y="617"/>
      <point x="52" y="490" type="curve" smooth="yes"/>
      <point x="33" y="353"/>
      <point x="121" y="259"/>
      <point x="244" y="259" type="curve" smooth="yes"/>
      <point x="383" y="259"/>
      <point x="475" y="347"/>
      <point x="494" y="474" type="curve" smooth="yes"/>
      <point x="513" y="610"/>
      <point x="425" y="704"/>
    </contour>
    <contour>
      <point x="275" y="591" type="line"/>
      <point x="190" y="591" type="line"/>
      <point x="161" y="383" type="line"/>
      <point x="246" y="383" type="line"/>
    </contour>
    <contour>
      <point x="299" y="653" type="curve" smooth="yes"/>
      <point x="385" y="653"/>
      <point x="452" y="589"/>
      <point x="439" y="490" type="curve" smooth="yes"/>
      <point x="426" y="381"/>
      <point x="358" y="310"/>
      <point x="248" y="310" type="curve" smooth="yes"/>
      <point x="161" y="310"/>
      <point x="94" y="374"/>
      <point x="107" y="474" type="curve" smooth="yes"/>
      <point x="121" y="583"/>
      <point x="189" y="653"/>
    </contour>
    <contour>
      <point x="281" y="594" type="curve" smooth="yes"/>
      <point x="240" y="594"/>
      <point x="220" y="594"/>
      <point x="190" y="591" type="curve"/>
      <point x="195" y="535" type="line"/>
      <point x="206" y="535"/>
      <point x="241" y="535"/>
      <point x="290" y="535" type="curve" smooth="yes"/>
      <point x="303" y="535"/>
      <point x="304" y="530"/>
      <point x="302" y="519" type="curve" smooth="yes"/>
      <point x="300" y="506"/>
      <point x="294" y="505"/>
      <point x="282" y="505" type="curve" smooth="yes"/>
      <point x="183" y="505" type="line"/>
      <point x="182" y="455" type="line"/>
      <point x="206" y="454"/>
      <point x="220" y="454"/>
      <point x="277" y="454" type="curve" smooth="yes"/>
      <point x="285" y="454"/>
      <point x="287" y="452"/>
      <point x="287" y="444" type="curve" smooth="yes"/>
      <point x="288" y="383" type="line"/>
      <point x="376" y="383" type="line"/>
      <point x="370" y="442" type="line" smooth="yes"/>
      <point x="367" y="472"/>
      <point x="353" y="479"/>
      <point x="336" y="480" type="curve"/>
      <point x="337" y="482" type="line"/>
      <point x="376" y="486"/>
      <point x="385" y="510"/>
      <point x="387" y="527" type="curve" smooth="yes"/>
      <point x="395" y="575"/>
      <point x="359" y="594"/>
    </contour>
  </outline>
</glyph>
<glyph name="twosuperior" format="2">
  <advance width="431"/>
  <unicode hex="00B2"/>
  <outline>
    <contour>
      <point x="276" y="781" type="curve" smooth="yes"/>
      <point x="246" y="781"/>
      <point x="181" y="780"/>
      <point x="114" y="769" type="curve"/>
      <point x="101" y="652" type="line"/>
      <point x="162" y="650"/>
      <point x="194" y="650"/>
      <point x="240" y="650" type="curve" smooth="yes"/>
      <point x="258" y="650"/>
      <point x="269" y="649"/>
      <point x="269" y="645" type="curve" smooth="yes"/>
      <point x="269" y="636"/>
      <point x="219" y="597"/>
      <point x="178" y="566" type="curve" smooth="yes"/>
      <point x="95" y="503" type="line" smooth="yes"/>
      <point x="74" y="486"/>
      <point x="67" y="465"/>
      <point x="64" y="439" type="curve" smooth="yes"/>
      <point x="52" y="360" type="line"/>
      <point x="411" y="360" type="line"/>
      <point x="430" y="491" type="line"/>
      <point x="322" y="494" type="line" smooth="yes"/>
      <point x="301" y="495"/>
      <point x="285" y="492"/>
      <point x="264" y="486" type="curve"/>
      <point x="366" y="561" type="line" smooth="yes"/>
      <point x="409" y="593"/>
      <point x="446" y="632"/>
      <point x="446" y="688" type="curve" smooth="yes"/>
      <point x="446" y="766"/>
      <point x="389" y="781"/>
    </contour>
  </outline>
</glyph>
<glyph name="paragraph" format="2">
  <advance width="595"/>
  <unicode hex="00B6"/>
  <outline>
    <contour>
      <point x="382" y="702" type="curve" smooth="yes"/>
      <point x="159" y="702"/>
      <point x="67" y="639"/>
      <point x="40" y="458" type="curve" smooth="yes"/>
      <point x="19" y="316"/>
      <point x="78" y="213"/>
      <point x="242" y="200" type="curve"/>
      <point x="392" y="579" type="line"/>
      <point x="433" y="579"/>
      <point x="511" y="577"/>
      <point x="560" y="568" type="curve"/>
      <point x="576" y="685" type="line"/>
      <point x="519" y="697"/>
      <point x="441" y="702"/>
    </contour>
    <contour>
      <point x="419" y="685" type="line"/>
      <point x="294" y="685" type="line"/>
      <point x="168" y="-210" type="line"/>
      <point x="293" y="-210" type="line"/>
    </contour>
    <contour>
      <point x="576" y="685" type="line"/>
      <point x="451" y="685" type="line"/>
      <point x="355" y="0" type="line"/>
      <point x="480" y="0" type="line"/>
    </contour>
  </outline>
</glyph>
<glyph name="questiondown" format="2">
  <advance width="535"/>
  <unicode hex="00BF"/>
  <outline>
    <contour>
      <point x="365" y="290" type="curve"/>
      <point x="201" y="290" type="line"/>
      <point x="158" y="120"/>
      <point x="-7" y="110"/>
      <point x="-26" y="-31" type="curve" smooth="yes"/>
      <point x="-41" y="-141"/>
      <point x="30" y="-194"/>
      <point x="190" y="-194" type="curve" smooth="yes"/>
      <point x="327" y="-194"/>
      <point x="367" y="-183"/>
      <point x="452" y="-167" type="curve"/>
      <point x="454" y="-28" type="line"/>
      <point x="385" y="-28"/>
      <point x="349" y="-28"/>
      <point x="241" y="-28" type="curve" smooth="yes"/>
      <point x="200" y="-28"/>
      <point x="194" y="-14"/>
      <point x="206" y="7" type="curve" smooth="yes"/>
      <point x="233" y="54"/>
      <point x="351" y="118"/>
    </contour>
    <contour>
      <point x="330" y="518" type="curve" smooth="yes"/>
      <point x="289" y="518" type="line" smooth="yes"/>
      <point x="241" y="518"/>
      <point x="216" y="497"/>
      <point x="209" y="450" type="curve" smooth="yes"/>
      <point x="204" y="409" type="line" smooth="yes"/>
      <point x="198" y="360"/>
      <point x="221" y="333"/>
      <point x="273" y="333" type="curve" smooth="yes"/>
      <point x="314" y="333" type="line" smooth="yes"/>
      <point x="365" y="333"/>
      <point x="388" y="354"/>
      <point x="393" y="401" type="curve" smooth="yes"/>
      <point x="399" y="442" type="line" smooth="yes"/>
      <point x="406" y="492"/>
      <point x="377" y="518"/>
    </contour>
  </outline>
</glyph>
<glyph name="Oslash" format="2">
  <advance width="700"/>
  <unicode hex="00D8"/>
  <anchor x="412" y="735" name="top"/>
  <outline>
    <contour>
      <point x="571" y="757" type="line"/>
      <point x="87" y="-44" type="line"/>
      <point x="145" y="-71" type="line"/>
      <point x="629" y="730" type="line"/>
    </contour>
    <component base="O"/>
  </outline>
</glyph>
<glyph name="Thorn" format="2">
  <advance width="636"/>
  <unicode hex="00DE"/>
  <outline>
    <contour>
      <point x="367" y="578" type="curve" smooth="yes"/>
      <point x="241" y="578"/>
      <point x="185" y="577"/>
      <point x="97" y="568" type="curve"/>
      <point x="94" y="419" type="line"/>
      <point x="127" y="423"/>
      <point x="228" y="425"/>
      <point x="364" y="425" type="curve" smooth="yes"/>
      <point x="412" y="425"/>
      <point x="419" y="407"/>
      <point x="411" y="351" type="curve" smooth="yes"/>
      <point x="400" y="270"/>
      <point x="385" y="263"/>
      <point x="336" y="263" type="curve" smooth="yes"/>
      <point x="246" y="263"/>
      <point x="146" y="263"/>
      <point x="56" y="263" type="curve"/>
      <point x="50" y="167" type="line"/>
      <point x="79" y="145"/>
      <point x="219" y="110"/>
      <point x="355" y="110" type="curve" smooth="yes"/>
      <point x="534" y="110"/>
      <point x="602" y="157"/>
      <point x="626" y="335" type="curve" smooth="yes"/>
      <point x="651" y="523"/>
      <point x="575" y="578"/>
    </contour>
    <contour>
      <point x="326" y="690" type="line"/>
      <point x="109" y="690" type="line"/>
      <point x="12" y="0" type="line"/>
      <point x="229" y="0" type="line"/>
    </contour>
  </outline>
</glyph>
<glyph name="kgreenlandic" format="2">
  <advance width="609"/>
  <unicode hex="0138"/>
  <outline>
    <contour>
      <point x="283" y="500" type="line"/>
      <point x="73" y="500" type="line"/>
      <point x="3" y="0" type="line"/>
      <point x="213" y="0" type="line"/>
      <point x="232" y="128" type="line" smooth="yes"/>
      <point x="239" y="176"/>
      <point x="232" y="247"/>
      <point x="229" y="295" type="curve"/>
      <point x="251" y="336"/>
      <point x="266" y="375"/>
      <point x="272" y="417" type="curve" smooth="yes"/>
    </contour>
    <contour>
      <point x="609" y="500" type="curve"/>
      <point x="393" y="500" type="line"/>
      <point x="370" y="396"/>
      <point x="278" y="308"/>
      <point x="182" y="273" type="curve"/>
      <point x="202" y="149" type="line"/>
      <point x="359" y="195"/>
      <point x="559" y="281"/>
    </contour>
    <contour>
      <point x="392" y="268" type="curve"/>
      <point x="258" y="219" type="line"/>
      <point x="360" y="0" type="line"/>
      <point x="575" y="0" type="line"/>
      <point x="488" y="178" type="line" smooth="yes"/>
      <point x="471" y="213"/>
      <point x="444" y="248"/>
    </contour>
  </outline>
</glyph>
<glyph name="eng" format="2">
  <advance width="619"/>
  <unicode hex="014B"/>
  <outline>
    <contour>
      <point x="451" y="514" type="curve" smooth="yes"/>
      <point x="381" y="514"/>
      <point x="293" y="474"/>
      <point x="205" y="377" type="curve"/>
      <point x="242" y="287" type="line"/>
      <point x="291" y="326"/>
      <point x="322" y="335"/>
      <point x="344" y="337" type="curve" smooth="yes"/>
      <point x="366" y="339"/>
      <point x="375" y="333"/>
      <point x="371" y="311" type="curve" smooth="yes"/>
      <point x="326" y="-2" type="line" smooth="yes"/>
      <point x="323" y="-21"/>
      <point x="300" y="-33"/>
      <point x="275" y="-33" type="curve" smooth="yes"/>
      <point x="245" y="-33" type="line"/>
      <point x="209" y="-167" type="line"/>
      <point x="240" y="-185"/>
      <point x="318" y="-195"/>
      <point x="365" y="-195" type="curve" smooth="yes"/>
      <point x="459" y="-195"/>
      <point x="518" y="-136"/>
      <point x="533" y="-28" type="curve" smooth="yes"/>
      <point x="590" y="370" type="line" smooth="yes"/>
      <point x="602" y="462"/>
      <point x="553" y="514"/>
    </contour>
    <contour>
      <point x="236" y="500" type="line"/>
      <point x="72" y="500" type="line"/>
      <point x="3" y="0" type="line"/>
      <point x="213" y="0" type="line"/>
      <point x="261" y="341" type="line"/>
      <point x="242" y="413" type="line"/>
    </contour>
  </outline>
</glyph>
<glyph name="OE" format="2">
  <advance width="975"/>
  <unicode hex="0152"/>
  <guideline x="364" y="278" angle="290"/>
  <guideline x="358" y="401" angle="70"/>
  <outline>
    <contour>
      <point x="393" y="704" type="curve" smooth="yes"/>
      <point x="168" y="704"/>
      <point x="80" y="633"/>
      <point x="41" y="353" type="curve" smooth="yes"/>
      <point x="1" y="65"/>
      <point x="79" y="-14"/>
      <point x="316" y="-14" type="curve" smooth="yes"/>
      <point x="383" y="-14"/>
      <point x="442" y="-3"/>
      <point x="501" y="27" type="curve"/>
      <point x="433" y="166" type="line"/>
      <point x="410" y="154"/>
      <point x="374" y="147"/>
      <point x="314" y="147" type="curve" smooth="yes"/>
      <point x="252" y="147"/>
      <point x="246" y="181"/>
      <point x="268" y="337" type="curve" smooth="yes"/>
      <point x="291" y="501"/>
      <point x="320" y="543"/>
      <point x="394" y="543" type="curve" smooth="yes"/>
      <point x="439" y="543"/>
      <point x="473" y="541"/>
      <point x="495" y="532" type="curve"/>
      <point x="588" y="671" type="line"/>
      <point x="533" y="693"/>
      <point x="474" y="704"/>
    </contour>
    <contour>
      <point x="478" y="420" type="line"/>
      <point x="458" y="286" type="line"/>
      <point x="903" y="286" type="line"/>
      <point x="920" y="420" type="line"/>
    </contour>
    <contour>
      <point x="642" y="694" type="curve" smooth="yes"/>
      <point x="557" y="694"/>
      <point x="490" y="634"/>
      <point x="477" y="541" type="curve" smooth="yes"/>
      <point x="423" y="157" type="line" smooth="yes"/>
      <point x="410" y="64"/>
      <point x="471" y="-4"/>
      <point x="569" y="-4" type="curve" smooth="yes"/>
      <point x="679" y="-4"/>
      <point x="815" y="-5"/>
      <point x="913" y="8" type="curve"/>
      <point x="917" y="162" type="line"/>
      <point x="673" y="162" type="line" smooth="yes"/>
      <point x="651" y="162"/>
      <point x="642" y="173"/>
      <point x="645" y="194" type="curve" smooth="yes"/>
      <point x="687" y="488" type="line" smooth="yes"/>
      <point x="690" y="509"/>
      <point x="714" y="528"/>
      <point x="737" y="528" type="curve" smooth="yes"/>
      <point x="970" y="528" type="line"/>
      <point x="995" y="680" type="line"/>
      <point x="901" y="693"/>
      <point x="764" y="694"/>
    </contour>
  </outline>
</glyph>
<glyph name="Tbar" format="2">
  <advance width="618"/>
  <unicode hex="0166"/>
  <outline>
    <contour>
      <point x="550" y="381" type="line"/>
      <point x="100" y="381" type="line"/>
      <point x="87" y="287" type="line"/>
      <point x="537" y="287" type="line"/>
    </contour>
    <component base="T"/>
  </outline>
</glyph>
<glyph name="Aringacute" format="2">
  <advance width="678"/>
  <unicode hex="01FA"/>
  <outline>
    <contour>
      <point x="477" y="630" type="curve" smooth="yes"/>
      <point x="281" y="630" type="line" smooth="yes"/>
      <point x="246" y="630"/>
      <point x="220" y="612"/>
      <point x="205" y="578" type="curve" smooth="yes"/>
      <point x="-49" y="0" type="line"/>
      <point x="176" y="0" type="line"/>
      <point x="333" y="395" type="line" smooth="yes"/>
      <point x="344" y="422"/>
      <point x="349" y="448"/>
      <point x="353" y="470" type="curve"/>
      <point x="381" y="470" type="line"/>
      <point x="380" y="445"/>
      <point x="379" y="419"/>
      <point x="382" y="393" type="curve" smooth="yes"/>
      <point x="430" y="0" type="line"/>
      <point x="647" y="0" type="line"/>
      <point x="546" y="570" type="line" smooth="yes"/>
      <point x="540" y="604"/>
      <point x="512" y="630"/>
    </contour>
    <contour>
      <point x="522" y="254" type="line"/>
      <point x="160" y="254" type="line"/>
      <point x="141" y="96" type="line"/>
      <point x="504" y="96" type="line"/>
    </contour>
    <contour>
      <point x="398" y="902" type="curve" smooth="yes"/>
      <point x="321" y="902"/>
      <point x="264" y="848"/>
      <point x="264" y="771" type="curve" smooth="yes"/>
      <point x="264" y="705"/>
      <point x="320" y="660"/>
      <point x="388" y="660" type="curve" smooth="yes"/>
      <point x="466" y="660"/>
      <point x="522" y="714"/>
      <point x="522" y="791" type="curve" smooth="yes"/>
      <point x="522" y="857"/>
      <point x="467" y="902"/>
    </contour>
    <contour>
      <point x="394" y="827" type="curve" smooth="yes"/>
      <point x="420" y="827"/>
      <point x="438" y="810"/>
      <point x="438" y="784" type="curve" smooth="yes"/>
      <point x="438" y="754"/>
      <point x="420" y="735"/>
      <point x="391" y="735" type="curve" smooth="yes"/>
      <point x="367" y="735"/>
      <point x="348" y="753"/>
      <point x="348" y="779" type="curve" smooth="yes"/>
      <point x="348" y="809"/>
      <point x="367" y="827"/>
    </contour>
    <contour>
      <point x="467" y="1122" type="line"/>
      <point x="287" y="994" type="line"/>
      <point x="332" y="917" type="line"/>
      <point x="530" y="990" type="line"/>
    </contour>
  </outline>
</glyph>
<glyph name="commaturnedmod" format="2">
  <advance width="257"/>
  <unicode hex="02BB"/>
  <anchor x="162" y="526" name="_top"/>
  <outline>
    <contour>
      <point x="150" y="474" type="curve" smooth="yes"/>
      <point x="186" y="474" type="line" smooth="yes"/>
      <point x="236" y="474"/>
      <point x="261" y="490"/>
      <point x="269" y="545" type="curve" smooth="yes"/>
      <point x="276" y="591" type="line" smooth="yes"/>
      <point x="283" y="635"/>
      <point x="268" y="656"/>
      <point x="224" y="655" type="curve"/>
      <point x="236" y="700"/>
      <point x="247" y="747"/>
      <point x="267" y="792" type="curve"/>
      <point x="182" y="824" type="line"/>
      <point x="139" y="773"/>
      <point x="102" y="684"/>
      <point x="92" y="614" type="curve" smooth="yes"/>
      <point x="83" y="550" type="line" smooth="yes"/>
      <point x="75" y="495"/>
      <point x="97" y="474"/>
    </contour>
  </outline>
</glyph>
<glyph name="ringhalfright" format="2">
  <advance width="175"/>
  <unicode hex="02BE"/>
  <anchor x="128" y="552" name="_top"/>
  <outline>
    <contour>
      <point x="72" y="610" type="curve"/>
      <point x="60" y="535" type="line"/>
      <point x="145" y="533"/>
      <point x="202" y="589"/>
      <point x="202" y="666" type="curve" smooth="yes"/>
      <point x="202" y="726"/>
      <point x="155" y="769"/>
      <point x="95" y="776" type="curve"/>
      <point x="84" y="701" type="line"/>
      <point x="104" y="697"/>
      <point x="118" y="681"/>
      <point x="118" y="658" type="curve" smooth="yes"/>
      <point x="118" y="628"/>
      <point x="99" y="610"/>
    </contour>
  </outline>
</glyph>
<glyph name="ringhalfleft" format="2">
  <advance width="175"/>
  <unicode hex="02BF"/>
  <anchor x="155" y="552" name="_top"/>
  <outline>
    <contour>
      <point x="217" y="701" type="curve"/>
      <point x="229" y="776" type="line"/>
      <point x="144" y="778"/>
      <point x="87" y="722"/>
      <point x="87" y="645" type="curve" smooth="yes"/>
      <point x="87" y="585"/>
      <point x="134" y="542"/>
      <point x="194" y="535" type="curve"/>
      <point x="205" y="610" type="line"/>
      <point x="185" y="614"/>
      <point x="171" y="630"/>
      <point x="171" y="653" type="curve" smooth="yes"/>
      <point x="171" y="683"/>
      <point x="190" y="701"/>
    </contour>
  </outline>
</glyph>
<glyph name="firsttonechinese" format="2">
  <advance width="400"/>
  <unicode hex="02C9"/>
  <anchor x="246" y="553" name="_top"/>
  <outline>
    <contour>
      <point x="425" y="713" type="line"/>
      <point x="105" y="713" type="line"/>
      <point x="88" y="590" type="line"/>
      <point x="408" y="590" type="line"/>
    </contour>
  </outline>
</glyph>
<glyph name="secondtonechinese" format="2">
  <advance width="392"/>
  <unicode hex="02CA"/>
  <anchor x="181" y="526" name="_top"/>
  <outline>
    <contour>
      <point x="337" y="753" type="line"/>
      <point x="90" y="597" type="line"/>
      <point x="137" y="511" type="line"/>
      <point x="403" y="607" type="line"/>
    </contour>
  </outline>
</glyph>
<glyph name="verticallinelowmod" format="2">
  <advance width="187"/>
  <unicode hex="02CC"/>
  <anchor x="60" y="0" name="_bottom"/>
  <outline>
    <contour>
      <point x="86" y="-211" type="line"/>
      <point x="118" y="-27" type="line"/>
      <point x="-4" y="-27" type="line"/>
      <point x="-36" y="-210" type="line"/>
    </contour>
  </outline>
</glyph>
<glyph name="ring" format="2">
  <advance width="318"/>
  <unicode hex="02DA"/>
  <anchor x="201" y="552" name="_top"/>
  <outline>
    <contour>
      <point x="221" y="776" type="curve" smooth="yes"/>
      <point x="144" y="776"/>
      <point x="87" y="722"/>
      <point x="87" y="645" type="curve" smooth="yes"/>
      <point x="87" y="579"/>
      <point x="143" y="534"/>
      <point x="211" y="534" type="curve" smooth="yes"/>
      <point x="289" y="534"/>
      <point x="345" y="588"/>
      <point x="345" y="665" type="curve" smooth="yes"/>
      <point x="345" y="731"/>
      <point x="290" y="776"/>
    </contour>
    <contour>
      <point x="217" y="701" type="curve" smooth="yes"/>
      <point x="243" y="701"/>
      <point x="261" y="684"/>
      <point x="261" y="658" type="curve" smooth="yes"/>
      <point x="261" y="628"/>
      <point x="243" y="609"/>
      <point x="214" y="609" type="curve" smooth="yes"/>
      <point x="190" y="609"/>
      <point x="171" y="627"/>
      <point x="171" y="653" type="curve" smooth="yes"/>
      <point x="171" y="683"/>
      <point x="190" y="701"/>
    </contour>
  </outline>
</glyph>
<glyph name="circumflexcomb" format="2">
  <unicode hex="0302"/>
  <anchor x="-200" y="550" name="_top"/>
  <outline>
    <contour>
      <point x="-119" y="742" type="line"/>
      <point x="-260" y="742" type="line"/>
      <point x="-410" y="606" type="line"/>
      <point x="-362" y="534" type="line"/>
      <point x="-198" y="628" type="line"/>
      <point x="-190" y="628" type="line"/>
      <point x="-43" y="534" type="line"/>
      <point x="12" y="602" type="line"/>
    </contour>
  </outline>
</glyph>
<glyph name="dieresiscomb" format="2">
  <unicode hex="0308"/>
  <anchor x="-178" y="551" name="_top"/>
  <outline>
    <contour>
      <point x="-212" y="720" type="curve" smooth="yes"/>
      <point x="-289" y="720" type="line" smooth="yes"/>
      <point x="-314" y="720"/>
      <point x="-324" y="710"/>
      <point x="-328" y="685" type="curve" smooth="yes"/>
      <point x="-339" y="612" type="line" smooth="yes"/>
      <point x="-342" y="590"/>
      <point x="-332" y="579"/>
      <point x="-309" y="579" type="curve" smooth="yes"/>
      <point x="-228" y="579" type="line" smooth="yes"/>
      <point x="-205" y="579"/>
      <point x="-196" y="588"/>
      <point x="-193" y="611" type="curve" smooth="yes"/>
      <point x="-182" y="687" type="line" smooth="yes"/>
      <point x="-179" y="709"/>
      <point x="-188" y="720"/>
    </contour>
    <contour>
      <point x="-23" y="720" type="curve" smooth="yes"/>
      <point x="-103" y="720" type="line" smooth="yes"/>
      <point x="-125" y="720"/>
      <point x="-135" y="711"/>
      <point x="-139" y="686" type="curve" smooth="yes"/>
      <point x="-150" y="612" type="line" smooth="yes"/>
      <point x="-153" y="590"/>
      <point x="-143" y="579"/>
      <point x="-120" y="579" type="curve" smooth="yes"/>
      <point x="-39" y="579" type="line" smooth="yes"/>
      <point x="-16" y="579"/>
      <point x="-8" y="588"/>
      <point x="-4" y="612" type="curve" smooth="yes"/>
      <point x="7" y="687" type="line" smooth="yes"/>
      <point x="10" y="709"/>
      <point x="0" y="720"/>
    </contour>
  </outline>
</glyph>
<glyph name="caroncomb" format="2">
  <unicode hex="030C"/>
  <anchor x="-196" y="545" name="_top"/>
  <outline>
    <contour>
      <point x="-14" y="753" type="line"/>
      <point x="-185" y="676" type="line"/>
      <point x="-193" y="676" type="line"/>
      <point x="-340" y="757" type="line"/>
      <point x="-398" y="691" type="line"/>
      <point x="-235" y="547" type="line"/>
      <point x="-153" y="547" type="line"/>
      <point x="26" y="678" type="line"/>
    </contour>
  </outline>
</glyph>
<glyph name="dblgravecomb" format="2">
  <unicode hex="030F"/>
  <anchor x="-195" y="523" name="_top"/>
  <outline>
    <contour>
      <point x="-145" y="756" type="line"/>
      <point x="-266" y="672" type="line"/>
      <point x="-83" y="511" type="line"/>
      <point x="2" y="563" type="line"/>
    </contour>
    <contour>
      <point x="-360" y="756" type="line"/>
      <point x="-481" y="672" type="line"/>
      <point x="-297" y="511" type="line"/>
      <point x="-213" y="562" type="line"/>
    </contour>
  </outline>
</glyph>
<glyph name="breveinvertedcomb" format="2">
  <unicode hex="0311"/>
  <anchor x="-157" y="532" name="_top"/>
  <outline>
    <contour>
      <point x="-242" y="534" type="line"/>
      <point x="-238" y="570"/>
      <point x="-211" y="591"/>
      <point x="-151" y="591" type="curve" smooth="yes"/>
      <point x="-94" y="591"/>
      <point x="-71" y="578"/>
      <point x="-78" y="536" type="curve"/>
      <point x="20" y="541" type="line"/>
      <point x="49" y="630"/>
      <point x="-18" y="717"/>
      <point x="-142" y="717" type="curve" smooth="yes"/>
      <point x="-267" y="717"/>
      <point x="-339" y="638"/>
      <point x="-336" y="549" type="curve"/>
    </contour>
  </outline>
</glyph>
<glyph name="commaturnedabovecomb" format="2">
  <unicode hex="0312"/>
  <anchor x="-149" y="526" name="_top"/>
  <outline>
    <contour>
      <point x="-156" y="498" type="curve" smooth="yes"/>
      <point x="-129" y="498" type="line" smooth="yes"/>
      <point x="-90" y="498"/>
      <point x="-74" y="511"/>
      <point x="-66" y="551" type="curve" smooth="yes"/>
      <point x="-61" y="577" type="line" smooth="yes"/>
      <point x="-55" y="610"/>
      <point x="-68" y="626"/>
      <point x="-101" y="626" type="curve"/>
      <point x="-95" y="660"/>
      <point x="-89" y="686"/>
      <point x="-75" y="720" type="curve"/>
      <point x="-140" y="744" type="line"/>
      <point x="-170" y="705"/>
      <point x="-193" y="647"/>
      <point x="-201" y="595" type="curve" smooth="yes"/>
      <point x="-207" y="556" type="line" smooth="yes"/>
      <point x="-213" y="514"/>
      <point x="-196" y="498"/>
    </contour>
  </outline>
</glyph>
<glyph name="dotbelowcomb" format="2">
  <unicode hex="0323"/>
  <anchor x="-189" y="0" name="_bottom"/>
  <outline>
    <contour>
      <point x="-165" y="-27" type="curve" smooth="yes"/>
      <point x="-224" y="-27" type="line" smooth="yes"/>
      <point x="-258" y="-27"/>
      <point x="-282" y="-45"/>
      <point x="-286" y="-80" type="curve" smooth="yes"/>
      <point x="-292" y="-127" type="line" smooth="yes"/>
      <point x="-297" y="-167"/>
      <point x="-279" y="-188"/>
      <point x="-236" y="-188" type="curve" smooth="yes"/>
      <point x="-173" y="-188" type="line" smooth="yes"/>
      <point x="-138" y="-188"/>
      <point x="-117" y="-170"/>
      <point x="-113" y="-135" type="curve" smooth="yes"/>
      <point x="-108" y="-86" type="line" smooth="yes"/>
      <point x="-104" y="-46"/>
      <point x="-129" y="-27"/>
    </contour>
  </outline>
</glyph>
<glyph name="Omega" format="2">
  <advance width="719"/>
  <unicode hex="03A9"/>
  <outline>
    <contour>
      <point x="407" y="704" type="curve" smooth="yes"/>
      <point x="179" y="704"/>
      <point x="84" y="606"/>
      <point x="59" y="413" type="curve" smooth="yes"/>
      <point x="42" y="284"/>
      <point x="76" y="228"/>
      <point x="157" y="144" type="curve"/>
      <point x="124" y="160"/>
      <point x="104" y="162"/>
      <point x="80" y="162" type="curve" smooth="yes"/>
      <point x="18" y="162" type="line"/>
      <point x="-5" y="0" type="line"/>
      <point x="300" y="0" type="line"/>
      <point x="316" y="148" type="line"/>
      <point x="269" y="212"/>
      <point x="264" y="274"/>
      <point x="280" y="383" type="curve" smooth="yes"/>
      <point x="299" y="513"/>
      <point x="320" y="544"/>
      <point x="397" y="544" type="curve" smooth="yes"/>
      <point x="468" y="544"/>
      <point x="484" y="514"/>
      <point x="463" y="370" type="curve" smooth="yes"/>
      <point x="446" y="257"/>
      <point x="424" y="208"/>
      <point x="355" y="148" type="curve"/>
      <point x="337" y="0" type="line"/>
      <point x="642" y="0" type="line"/>
      <point x="664" y="162" type="line"/>
      <point x="604" y="162" type="line" smooth="yes"/>
      <point x="576" y="162"/>
      <point x="553" y="158"/>
      <point x="523" y="142" type="curve"/>
      <point x="632" y="225"/>
      <point x="674" y="271"/>
      <point x="691" y="393" type="curve" smooth="yes"/>
      <point x="721" y="606"/>
      <point x="626" y="704"/>
    </contour>
  </outline>
</glyph>
<glyph name="pi" format="2">
  <advance width="658"/>
  <unicode hex="03C0"/>
  <outline>
    <contour>
      <point x="609" y="501" type="line"/>
      <point x="399" y="501" type="line"/>
      <point x="329" y="0" type="line"/>
      <point x="539" y="0" type="line"/>
    </contour>
    <contour>
      <point x="318" y="501" type="line"/>
      <point x="108" y="501" type="line"/>
      <point x="38" y="0" type="line"/>
      <point x="248" y="0" type="line"/>
    </contour>
    <contour>
      <point x="673" y="501" type="line"/>
      <point x="44" y="501" type="line"/>
      <point x="25" y="365" type="line"/>
      <point x="654" y="365" type="line"/>
    </contour>
  </outline>
</glyph>
<glyph name="Lje-cy" format="2">
  <advance width="996"/>
  <unicode hex="0409"/>
  <outline>
    <contour>
      <point x="693" y="690" type="line"/>
      <point x="371" y="690" type="line" smooth="yes"/>
      <point x="267" y="690"/>
      <point x="208" y="641"/>
      <point x="188" y="545" type="curve" smooth="yes"/>
      <point x="158" y="400"/>
      <point x="129" y="289"/>
      <point x="100" y="230" type="curve"/>
      <point x="72" y="167"/>
      <point x="30" y="169"/>
      <point x="-11" y="164" type="curve"/>
      <point x="-3" y="-4" type="line"/>
      <point x="120" y="-28"/>
      <point x="230" y="-1"/>
      <point x="295" y="156" type="curve" smooth="yes"/>
      <point x="330" y="239"/>
      <point x="364" y="381"/>
      <point x="388" y="494" type="curve" smooth="yes"/>
      <point x="397" y="535"/>
      <point x="412" y="548"/>
      <point x="448" y="548" type="curve" smooth="yes"/>
      <point x="674" y="548" type="line"/>
    </contour>
    <contour>
      <point x="708" y="690" type="line"/>
      <point x="494" y="690" type="line"/>
      <point x="397" y="0" type="line"/>
      <point x="611" y="0" type="line"/>
    </contour>
    <contour>
      <point x="720" y="453" type="curve" smooth="yes"/>
      <point x="480" y="453" type="line"/>
      <point x="461" y="322" type="line"/>
      <point x="704" y="322" type="line" smooth="yes"/>
      <point x="761" y="322"/>
      <point x="759" y="303"/>
      <point x="750" y="229" type="curve" smooth="yes"/>
      <point x="739" y="140"/>
      <point x="722" y="142"/>
      <point x="670" y="142" type="curve" smooth="yes"/>
      <point x="554" y="142"/>
      <point x="462" y="143"/>
      <point x="431" y="145" type="curve"/>
      <point x="397" y="0" type="line"/>
      <point x="489" y="-7"/>
      <point x="564" y="-8"/>
      <point x="712" y="-8" type="curve" smooth="yes"/>
      <point x="887" y="-8"/>
      <point x="940" y="39"/>
      <point x="965" y="215" type="curve" smooth="yes"/>
      <point x="991" y="397"/>
      <point x="925" y="453"/>
    </contour>
  </outline>
</glyph>
<glyph name="Nje-cy" format="2">
  <advance width="976"/>
  <unicode hex="040A"/>
  <outline>
    <contour>
      <point x="712" y="437" type="curve" smooth="yes"/>
      <point x="467" y="437" type="line"/>
      <point x="448" y="296" type="line"/>
      <point x="686" y="296" type="line" smooth="yes"/>
      <point x="739" y="296"/>
      <point x="737" y="274"/>
      <point x="730" y="218" type="curve" smooth="yes"/>
      <point x="721" y="146"/>
      <point x="705" y="142"/>
      <point x="662" y="142" type="curve" smooth="yes"/>
      <point x="546" y="142"/>
      <point x="449" y="143"/>
      <point x="417" y="145" type="curve"/>
      <point x="384" y="0" type="line"/>
      <point x="475" y="-7"/>
      <point x="556" y="-8"/>
      <point x="704" y="-8" type="curve" smooth="yes"/>
      <point x="869" y="-8"/>
      <point x="922" y="37"/>
      <point x="944" y="199" type="curve" smooth="yes"/>
      <point x="971" y="397"/>
      <point x="878" y="437"/>
    </contour>
    <contour>
      <point x="331" y="690" type="line"/>
      <point x="113" y="690" type="line"/>
      <point x="16" y="0" type="line"/>
      <point x="234" y="0" type="line"/>
    </contour>
    <contour>
      <point x="452" y="437" type="line"/>
      <point x="286" y="437" type="line"/>
      <point x="267" y="295" type="line"/>
      <point x="432" y="295" type="line"/>
    </contour>
    <contour>
      <point x="693" y="690" type="line"/>
      <point x="480" y="690" type="line"/>
      <point x="383" y="0" type="line"/>
      <point x="596" y="0" type="line"/>
    </contour>
  </outline>
</glyph>
<glyph name="Dzhe-cy" format="2">
  <advance width="717"/>
  <unicode hex="040F"/>
  <outline>
    <contour>
      <point x="331" y="690" type="line"/>
      <point x="113" y="690" type="line"/>
      <point x="16" y="0" type="line"/>
      <point x="234" y="0" type="line"/>
    </contour>
    <contour>
      <point x="503" y="142" type="line"/>
      <point x="165" y="142" type="line"/>
      <point x="146" y="0" type="line"/>
      <point x="484" y="0" type="line"/>
    </contour>
    <contour>
      <point x="716" y="690" type="line"/>
      <point x="498" y="690" type="line"/>
      <point x="401" y="0" type="line"/>
      <point x="619" y="0" type="line"/>
    </contour>
    <contour>
      <point x="404" y="7" type="line"/>
      <point x="240" y="7" type="line"/>
      <point x="226" y="-151" type="line"/>
      <point x="374" y="-151" type="line"/>
    </contour>
  </outline>
</glyph>
<glyph name="Be-cy" format="2">
  <advance width="643"/>
  <unicode hex="0411"/>
  <outline>
    <contour>
      <point x="632" y="690" type="line"/>
      <point x="545" y="695"/>
      <point x="461" y="698"/>
      <point x="376" y="698" type="curve" smooth="yes"/>
      <point x="288" y="698"/>
      <point x="199" y="696"/>
      <point x="112" y="690" type="curve"/>
      <point x="15" y="0" type="line"/>
      <point x="232" y="0" type="line"/>
      <point x="308" y="535" type="line"/>
      <point x="594" y="535" type="line"/>
    </contour>
    <contour>
      <point x="351" y="423" type="curve" smooth="yes"/>
      <point x="93" y="423" type="line"/>
      <point x="77" y="292" type="line"/>
      <point x="337" y="292" type="line" smooth="yes"/>
      <point x="394" y="292"/>
      <point x="403" y="282"/>
      <point x="396" y="224" type="curve" smooth="yes"/>
      <point x="387" y="150"/>
      <point x="371" y="142"/>
      <point x="305" y="142" type="curve" smooth="yes"/>
      <point x="183" y="142"/>
      <point x="82" y="143"/>
      <point x="49" y="145" type="curve"/>
      <point x="15" y="0" type="line"/>
      <point x="112" y="-7"/>
      <point x="193" y="-8"/>
      <point x="347" y="-8" type="curve" smooth="yes"/>
      <point x="518" y="-8"/>
      <point x="587" y="37"/>
      <point x="610" y="200" type="curve" smooth="yes"/>
      <point x="634" y="368"/>
      <point x="558" y="423"/>
    </contour>
  </outline>
</glyph>
<glyph name="Ie-cy" format="2">
  <advance width="590"/>
  <unicode hex="0415"/>
  <anchor x="354" y="732" name="top"/>
  <outline>
    <contour>
      <point x="262" y="694" type="curve" smooth="yes"/>
      <point x="160" y="694"/>
      <point x="98" y="634"/>
      <point x="85" y="541" type="curve" smooth="yes"/>
      <point x="35" y="184" type="line" smooth="yes"/>
      <point x="21" y="75"/>
      <point x="76" y="-4"/>
      <point x="190" y="-4" type="curve" smooth="yes"/>
      <point x="298" y="-4"/>
      <point x="432" y="-5"/>
      <point x="528" y="8" type="curve"/>
      <point x="532" y="162" type="line"/>
      <point x="292" y="162" type="line" smooth="yes"/>
      <point x="263" y="162"/>
      <point x="251" y="175"/>
      <point x="255" y="201" type="curve" smooth="yes"/>
      <point x="295" y="488" type="line" smooth="yes"/>
      <point x="299" y="518"/>
      <point x="312" y="528"/>
      <point x="346" y="528" type="curve" smooth="yes"/>
      <point x="586" y="528" type="line"/>
      <point x="610" y="680" type="line"/>
      <point x="517" y="693"/>
      <point x="383" y="694"/>
    </contour>
    <contour>
      <point x="88" y="425" type="line"/>
      <point x="65" y="281" type="line"/>
      <point x="517" y="281" type="line"/>
      <point x="535" y="425" type="line"/>
    </contour>
  </outline>
</glyph>
<glyph name="Zhe-cy" format="2">
  <advance width="961"/>
  <unicode hex="0416"/>
  <anchor x="906" y="0" name="bottomright"/>
  <anchor x="548" y="732" name="top"/>
  <outline>
    <contour>
      <point x="301" y="690" type="curve"/>
      <point x="85" y="690" type="line"/>
      <point x="125" y="424"/>
      <point x="114" y="391"/>
      <point x="240" y="364" type="curve"/>
      <point x="239" y="358" type="line"/>
      <point x="105" y="336"/>
      <point x="96" y="320"/>
      <point x="-37" y="0" type="curve"/>
      <point x="193" y="0" type="line"/>
      <point x="308" y="264"/>
      <point x="317" y="288"/>
      <point x="369" y="288" type="curve"/>
      <point x="379" y="428" type="line"/>
      <point x="325" y="428"/>
      <point x="332" y="471"/>
    </contour>
    <contour>
      <point x="446" y="428" type="line"/>
      <point x="355" y="428" type="line"/>
      <point x="335" y="288" type="line"/>
      <point x="426" y="288" type="line"/>
    </contour>
    <contour>
      <point x="645" y="690" type="line"/>
      <point x="438" y="690" type="line"/>
      <point x="414" y="520" type="line" smooth="yes"/>
      <point x="407" y="469"/>
      <point x="411" y="412"/>
      <point x="424" y="370" type="curve"/>
      <point x="399" y="323"/>
      <point x="378" y="269"/>
      <point x="372" y="229" type="curve" smooth="yes"/>
      <point x="340" y="0" type="line"/>
      <point x="548" y="0" type="line"/>
      <point x="579" y="221" type="line" smooth="yes"/>
      <point x="587" y="266"/>
      <point x="582" y="315"/>
      <point x="568" y="354" type="curve"/>
      <point x="600" y="404"/>
      <point x="612" y="461"/>
      <point x="619" y="512" type="curve" smooth="yes"/>
    </contour>
    <contour>
      <point x="649" y="428" type="line"/>
      <point x="559" y="428" type="line"/>
      <point x="539" y="288" type="line"/>
      <point x="630" y="288" type="line"/>
    </contour>
    <contour>
      <point x="998" y="690" type="curve"/>
      <point x="774" y="690" type="line"/>
      <point x="682" y="471"/>
      <point x="679" y="428"/>
      <point x="609" y="428" type="curve"/>
      <point x="605" y="288" type="line"/>
      <point x="662" y="288"/>
      <point x="649" y="264"/>
      <point x="689" y="0" type="curve"/>
      <point x="908" y="0" type="line"/>
      <point x="854" y="302"/>
      <point x="866" y="336"/>
      <point x="743" y="356" type="curve"/>
      <point x="744" y="362" type="line"/>
      <point x="889" y="382"/>
      <point x="885" y="424"/>
    </contour>
  </outline>
</glyph>
<glyph name="Ii-cy" format="2">
  <advance width="735"/>
  <unicode hex="0418"/>
  <anchor x="421" y="735" name="top"/>
  <outline>
    <contour>
      <point x="734" y="690" type="line"/>
      <point x="528" y="690" type="line"/>
      <point x="315" y="379" type="line" smooth="yes"/>
      <point x="294" y="348"/>
      <point x="273" y="307"/>
      <point x="255" y="266" type="curve"/>
      <point x="247" y="266" type="line"/>
      <point x="261" y="311"/>
      <point x="274" y="354"/>
      <point x="280" y="397" type="curve" smooth="yes"/>
      <point x="321" y="690" type="line"/>
      <point x="113" y="690" type="line"/>
      <point x="16" y="0" type="line"/>
      <point x="225" y="0" type="line"/>
      <point x="442" y="320" type="line" smooth="yes"/>
      <point x="464" y="352"/>
      <point x="482" y="391"/>
      <point x="498" y="426" type="curve"/>
      <point x="505" y="426" type="line"/>
      <point x="492" y="387"/>
      <point x="482" y="347"/>
      <point x="476" y="309" type="curve" smooth="yes"/>
      <point x="431" y="0" type="line"/>
      <point x="637" y="0" type="line"/>
    </contour>
  </outline>
</glyph>
<glyph name="Es-cy" format="2">
  <advance width="603"/>
  <unicode hex="0421"/>
  <outline>
    <contour>
      <point x="391" y="702" type="curve" smooth="yes"/>
      <point x="161" y="702"/>
      <point x="80" y="631"/>
      <point x="41" y="353" type="curve" smooth="yes"/>
      <point x="3" y="81"/>
      <point x="84" y="-12"/>
      <point x="314" y="-12" type="curve" smooth="yes"/>
      <point x="415" y="-12"/>
      <point x="479" y="-3"/>
      <point x="553" y="20" type="curve"/>
      <point x="545" y="179" type="line"/>
      <point x="481" y="173"/>
      <point x="424" y="171"/>
      <point x="324" y="171" type="curve" smooth="yes"/>
      <point x="250" y="171"/>
      <point x="249" y="201"/>
      <point x="267" y="337" type="curve" smooth="yes"/>
      <point x="288" y="500"/>
      <point x="309" y="519"/>
      <point x="380" y="519" type="curve" smooth="yes"/>
      <point x="472" y="519"/>
      <point x="520" y="518"/>
      <point x="593" y="517" type="curve"/>
      <point x="618" y="674" type="line"/>
      <point x="551" y="693"/>
      <point x="494" y="702"/>
    </contour>
  </outline>
</glyph>
<glyph name="Shcha-cy" format="2">
  <advance width="1066"/>
  <unicode hex="0429"/>
  <outline>
    <contour>
      <point x="325" y="690" type="line"/>
      <point x="113" y="690" type="line"/>
      <point x="16" y="0" type="line"/>
      <point x="228" y="0" type="line"/>
    </contour>
    <contour>
      <point x="1033" y="142" type="line"/>
      <point x="239" y="142" type="line"/>
      <point x="220" y="0" type="line"/>
      <point x="1013" y="0" type="line"/>
    </contour>
    <contour>
      <point x="670" y="690" type="line"/>
      <point x="459" y="690" type="line"/>
      <point x="362" y="0" type="line"/>
      <point x="573" y="0" type="line"/>
    </contour>
    <contour>
      <point x="1016" y="690" type="line"/>
      <point x="804" y="690" type="line"/>
      <point x="707" y="0" type="line"/>
      <point x="919" y="0" type="line"/>
    </contour>
    <contour>
      <point x="841" y="7" type="line"/>
      <point x="835" y="-151" type="line"/>
      <point x="992" y="-151" type="line"/>
      <point x="1013" y="0" type="line"/>
    </contour>
  </outline>
</glyph>
<glyph name="Yeru-cy" format="2">
  <advance width="951"/>
  <unicode hex="042B"/>
  <anchor x="528" y="690" name="top"/>
  <outline>
    <contour>
      <point x="346" y="453" type="curve" smooth="yes"/>
      <point x="99" y="453" type="line"/>
      <point x="80" y="322" type="line"/>
      <point x="330" y="322" type="line" smooth="yes"/>
      <point x="389" y="322"/>
      <point x="387" y="303"/>
      <point x="378" y="229" type="curve" smooth="yes"/>
      <point x="367" y="140"/>
      <point x="350" y="142"/>
      <point x="296" y="142" type="curve" smooth="yes"/>
      <point x="180" y="142"/>
      <point x="82" y="143"/>
      <point x="50" y="145" type="curve"/>
      <point x="16" y="0" type="line"/>
      <point x="108" y="-7"/>
      <point x="189" y="-8"/>
      <point x="339" y="-8" type="curve" smooth="yes"/>
      <point x="515" y="-8"/>
      <point x="568" y="39"/>
      <point x="593" y="215" type="curve" smooth="yes"/>
      <point x="619" y="397"/>
      <point x="552" y="453"/>
    </contour>
    <contour>
      <point x="330" y="690" type="line"/>
      <point x="113" y="690" type="line"/>
      <point x="16" y="0" type="line"/>
      <point x="233" y="0" type="line"/>
    </contour>
    <contour>
      <point x="950" y="690" type="line"/>
      <point x="733" y="690" type="line"/>
      <point x="636" y="0" type="line"/>
      <point x="853" y="0" type="line"/>
    </contour>
  </outline>
</glyph>
<glyph name="Softsign-cy" format="2">
  <advance width="631"/>
  <unicode hex="042C"/>
  <outline>
    <contour>
      <point x="350" y="453" type="curve" smooth="yes"/>
      <point x="99" y="453" type="line"/>
      <point x="80" y="322" type="line"/>
      <point x="334" y="322" type="line" smooth="yes"/>
      <point x="396" y="322"/>
      <point x="394" y="303"/>
      <point x="385" y="229" type="curve" smooth="yes"/>
      <point x="374" y="140"/>
      <point x="356" y="142"/>
      <point x="299" y="142" type="curve" smooth="yes"/>
      <point x="181" y="142"/>
      <point x="82" y="143"/>
      <point x="49" y="145" type="curve"/>
      <point x="16" y="0" type="line"/>
      <point x="109" y="-7"/>
      <point x="190" y="-8"/>
      <point x="342" y="-8" type="curve" smooth="yes"/>
      <point x="520" y="-8"/>
      <point x="575" y="39"/>
      <point x="600" y="215" type="curve" smooth="yes"/>
      <point x="626" y="397"/>
      <point x="558" y="453"/>
    </contour>
    <contour>
      <point x="331" y="690" type="line"/>
      <point x="114" y="690" type="line"/>
      <point x="16" y="0" type="line"/>
      <point x="233" y="0" type="line"/>
    </contour>
  </outline>
</glyph>
<glyph name="ge-cy" format="2">
  <advance width="552"/>
  <unicode hex="0433"/>
  <anchor x="296" y="547" name="top"/>
  <outline>
    <contour>
      <point x="310" y="514" type="curve" smooth="yes"/>
      <point x="217" y="514"/>
      <point x="121" y="496"/>
      <point x="59" y="471" type="curve"/>
      <point x="63" y="354" type="line"/>
      <point x="205" y="368"/>
      <point x="221" y="369"/>
      <point x="261" y="370" type="curve" smooth="yes"/>
      <point x="316" y="372"/>
      <point x="332" y="372"/>
      <point x="333" y="360" type="curve" smooth="yes"/>
      <point x="335" y="343"/>
      <point x="305" y="340"/>
      <point x="267" y="331" type="curve" smooth="yes"/>
      <point x="149" y="303" type="line" smooth="yes"/>
      <point x="65" y="283"/>
      <point x="10" y="244"/>
      <point x="1" y="156" type="curve" smooth="yes"/>
      <point x="-11" y="36"/>
      <point x="79" y="-11"/>
      <point x="258" y="-11" type="curve" smooth="yes"/>
      <point x="374" y="-11"/>
      <point x="434" y="9"/>
      <point x="498" y="30" type="curve"/>
      <point x="481" y="155" type="line"/>
      <point x="434" y="148"/>
      <point x="376" y="143"/>
      <point x="297" y="138" type="curve" smooth="yes"/>
      <point x="219" y="133"/>
      <point x="201" y="136"/>
      <point x="201" y="152" type="curve" smooth="yes"/>
      <point x="201" y="163"/>
      <point x="210" y="168"/>
      <point x="259" y="179" type="curve" smooth="yes"/>
      <point x="370" y="204" type="line" smooth="yes"/>
      <point x="410" y="213"/>
      <point x="532" y="242"/>
      <point x="536" y="366" type="curve" smooth="yes"/>
      <point x="540" y="477"/>
      <point x="445" y="514"/>
    </contour>
  </outline>
</glyph>
<glyph name="de-cy" format="2">
  <advance width="606"/>
  <unicode hex="0434"/>
  <outline>
    <contour>
      <point x="146" y="729" type="curve"/>
      <point x="118" y="598" type="line"/>
      <point x="365" y="552"/>
      <point x="386" y="468"/>
      <point x="359" y="298" type="curve" smooth="yes"/>
      <point x="338" y="168"/>
      <point x="330" y="130"/>
      <point x="280" y="130" type="curve" smooth="yes"/>
      <point x="233" y="130"/>
      <point x="231" y="150"/>
      <point x="242" y="220" type="curve" smooth="yes"/>
      <point x="253" y="290"/>
      <point x="267" y="321"/>
      <point x="319" y="321" type="curve" smooth="yes"/>
      <point x="367" y="321"/>
      <point x="407" y="291"/>
      <point x="431" y="244" type="curve"/>
      <point x="442" y="322" type="line"/>
      <point x="416" y="439"/>
      <point x="323" y="453"/>
      <point x="261" y="453" type="curve" smooth="yes"/>
      <point x="125" y="453"/>
      <point x="44" y="388"/>
      <point x="22" y="222" type="curve" smooth="yes"/>
      <point x="0" y="58"/>
      <point x="98" y="-14"/>
      <point x="264" y="-14" type="curve" smooth="yes"/>
      <point x="451" y="-14"/>
      <point x="547" y="57"/>
      <point x="577" y="283" type="curve" smooth="yes"/>
      <point x="611" y="536"/>
      <point x="488" y="702"/>
    </contour>
  </outline>
</glyph>
<glyph name="zhe-cy" format="2">
  <advance width="853"/>
  <unicode hex="0436"/>
  <anchor x="798" y="0" name="bottomright"/>
  <anchor x="468" y="547" name="top"/>
  <outline>
    <contour>
      <point x="255" y="500" type="curve"/>
      <point x="56" y="500" type="line"/>
      <point x="96" y="277"/>
      <point x="87" y="281"/>
      <point x="203" y="265" type="curve"/>
      <point x="202" y="259" type="line"/>
      <point x="66" y="240"/>
      <point x="82" y="250"/>
      <point x="-37" y="0" type="curve"/>
      <point x="176" y="0" type="line"/>
      <point x="268" y="202"/>
      <point x="270" y="194"/>
      <point x="320" y="194" type="curve"/>
      <point x="327" y="324" type="line"/>
      <point x="280" y="324"/>
      <point x="283" y="328"/>
    </contour>
    <contour>
      <point x="385" y="324" type="line"/>
      <point x="306" y="324" type="line"/>
      <point x="289" y="194" type="line"/>
      <point x="369" y="194" type="line"/>
    </contour>
    <contour>
      <point x="550" y="500" type="line"/>
      <point x="367" y="500" type="line"/>
      <point x="352" y="393" type="line" smooth="yes"/>
      <point x="345" y="342"/>
      <point x="351" y="303"/>
      <point x="364" y="271" type="curve"/>
      <point x="342" y="232"/>
      <point x="324" y="183"/>
      <point x="320" y="151" type="curve" smooth="yes"/>
      <point x="299" y="0" type="line"/>
      <point x="483" y="0" type="line"/>
      <point x="501" y="150" type="line" smooth="yes"/>
      <point x="505" y="184"/>
      <point x="499" y="226"/>
      <point x="488" y="255" type="curve"/>
      <point x="514" y="295"/>
      <point x="527" y="349"/>
      <point x="533" y="390" type="curve" smooth="yes"/>
    </contour>
    <contour>
      <point x="559" y="324" type="line"/>
      <point x="481" y="324" type="line"/>
      <point x="463" y="194" type="line"/>
      <point x="542" y="194" type="line"/>
    </contour>
    <contour>
      <point x="866" y="500" type="curve"/>
      <point x="656" y="500" type="line"/>
      <point x="579" y="324"/>
      <point x="579" y="324"/>
      <point x="525" y="324" type="curve"/>
      <point x="523" y="194" type="line"/>
      <point x="570" y="194"/>
      <point x="565" y="198"/>
      <point x="606" y="0" type="curve"/>
      <point x="806" y="0" type="line"/>
      <point x="755" y="248"/>
      <point x="749" y="236"/>
      <point x="648" y="257" type="curve"/>
      <point x="649" y="263" type="line"/>
      <point x="761" y="269"/>
      <point x="758" y="277"/>
    </contour>
  </outline>
</glyph>
<glyph name="ze-cy" format="2">
  <advance width="532"/>
  <unicode hex="0437"/>
  <anchor x="231" y="0" name="bottom"/>
  <anchor x="289" y="553" name="top"/>
  <outline>
    <contour>
      <point x="264" y="514" type="curve" smooth="yes"/>
      <point x="221" y="514"/>
      <point x="134" y="512"/>
      <point x="51" y="490" type="curve"/>
      <point x="58" y="355" type="line"/>
      <point x="118" y="360"/>
      <point x="189" y="365"/>
      <point x="245" y="365" type="curve" smooth="yes"/>
      <point x="289" y="365"/>
      <point x="297" y="363"/>
      <point x="294" y="339" type="curve" smooth="yes"/>
      <point x="290" y="320"/>
      <point x="277" y="311"/>
      <point x="245" y="311" type="curve" smooth="yes"/>
      <point x="83" y="310" type="line"/>
      <point x="69" y="195" type="line"/>
      <point x="240" y="194" type="line" smooth="yes"/>
      <point x="267" y="194"/>
      <point x="282" y="190"/>
      <point x="279" y="164" type="curve" smooth="yes"/>
      <point x="277" y="134"/>
      <point x="258" y="132"/>
      <point x="214" y="132" type="curve" smooth="yes"/>
      <point x="167" y="132"/>
      <point x="91" y="135"/>
      <point x="5" y="144" type="curve"/>
      <point x="-15" y="11" type="line"/>
      <point x="68" y="-9"/>
      <point x="152" y="-14"/>
      <point x="240" y="-14" type="curve" smooth="yes"/>
      <point x="388" y="-14"/>
      <point x="468" y="-3"/>
      <point x="485" y="117" type="curve" smooth="yes"/>
      <point x="497" y="202"/>
      <point x="462" y="249"/>
      <point x="376" y="255" type="curve"/>
      <point x="377" y="260" type="line"/>
      <point x="466" y="267"/>
      <point x="493" y="307"/>
      <point x="501" y="368" type="curve" smooth="yes"/>
      <point x="518" y="493"/>
      <point x="440" y="514"/>
    </contour>
  </outline>
</glyph>
<glyph name="ii-cy" format="2">
  <advance width="618"/>
  <unicode hex="0438"/>
  <anchor x="346" y="547" name="top"/>
  <outline>
    <contour>
      <point x="282" y="500" type="line"/>
      <point x="71" y="500" type="line"/>
      <point x="20" y="130" type="line" smooth="yes"/>
      <point x="7" y="38"/>
      <point x="55" y="-14"/>
      <point x="159" y="-14" type="curve" smooth="yes"/>
      <point x="239" y="-14"/>
      <point x="315" y="28"/>
      <point x="403" y="126" type="curve"/>
      <point x="367" y="212" type="line"/>
      <point x="318" y="174"/>
      <point x="292" y="162"/>
      <point x="260" y="162" type="curve" smooth="yes"/>
      <point x="245" y="162"/>
      <point x="234" y="167"/>
      <point x="237" y="189" type="curve" smooth="yes"/>
    </contour>
    <contour>
      <point x="600" y="500" type="line"/>
      <point x="392" y="500" type="line"/>
      <point x="342" y="146" type="line"/>
      <point x="361" y="134" type="line"/>
      <point x="367" y="0" type="line"/>
      <point x="531" y="0" type="line"/>
    </contour>
  </outline>
</glyph>
<glyph name="ka-cy" format="2">
  <advance width="592"/>
  <unicode hex="043A"/>
  <anchor x="346" y="547" name="top"/>
  <outline>
    <contour>
      <point x="603" y="500" type="curve"/>
      <point x="384" y="500" type="line"/>
      <point x="320" y="322"/>
      <point x="320" y="325"/>
      <point x="256" y="325" type="curve"/>
      <point x="253" y="191" type="line"/>
      <point x="303" y="191"/>
      <point x="301" y="197"/>
      <point x="328" y="0" type="curve"/>
      <point x="541" y="0" type="line"/>
      <point x="499" y="254"/>
      <point x="507" y="235"/>
      <point x="395" y="254" type="curve"/>
      <point x="396" y="260" type="line"/>
      <point x="519" y="278"/>
      <point x="506" y="272"/>
    </contour>
    <contour>
      <point x="285" y="500" type="line"/>
      <point x="76" y="500" type="line"/>
      <point x="6" y="0" type="line"/>
      <point x="215" y="0" type="line"/>
      <point x="237" y="148" type="line" smooth="yes"/>
      <point x="241" y="179"/>
      <point x="229" y="225"/>
      <point x="222" y="254" type="curve"/>
      <point x="249" y="295"/>
      <point x="263" y="346"/>
      <point x="269" y="387" type="curve" smooth="yes"/>
    </contour>
    <contour>
      <point x="301" y="325" type="line"/>
      <point x="211" y="325" type="line"/>
      <point x="193" y="191" type="line"/>
      <point x="283" y="191" type="line"/>
    </contour>
  </outline>
</glyph>
<glyph name="el-cy" format="2">
  <advance width="625"/>
  <unicode hex="043B"/>
  <outline>
    <contour>
      <point x="594" y="500" type="line"/>
      <point x="278" y="500" type="line" smooth="yes"/>
      <point x="184" y="500"/>
      <point x="135" y="461"/>
      <point x="117" y="378" type="curve" smooth="yes"/>
      <point x="94" y="275"/>
      <point x="76" y="222"/>
      <point x="67" y="196" type="curve" smooth="yes"/>
      <point x="52" y="155"/>
      <point x="14" y="154"/>
      <point x="-19" y="153" type="curve"/>
      <point x="-9" y="-4" type="line"/>
      <point x="102" y="-26"/>
      <point x="226" y="-8"/>
      <point x="260" y="124" type="curve" smooth="yes"/>
      <point x="272" y="170"/>
      <point x="294" y="252"/>
      <point x="314" y="321" type="curve" smooth="yes"/>
      <point x="323" y="355"/>
      <point x="333" y="364"/>
      <point x="361" y="364" type="curve" smooth="yes"/>
      <point x="576" y="364" type="line"/>
    </contour>
    <contour>
      <point x="607" y="500" type="line"/>
      <point x="397" y="500" type="line"/>
      <point x="328" y="0" type="line"/>
      <point x="537" y="0" type="line"/>
    </contour>
  </outline>
</glyph>
<glyph name="em-cy" format="2">
  <advance width="822"/>
  <unicode hex="043C"/>
  <outline>
    <contour>
      <point x="723" y="500" type="curve" smooth="yes"/>
      <point x="547" y="500" type="line" smooth="yes"/>
      <point x="503" y="500"/>
      <point x="477" y="481"/>
      <point x="466" y="439" type="curve" smooth="yes"/>
      <point x="417" y="283" type="line" smooth="yes"/>
      <point x="409" y="254"/>
      <point x="406" y="231"/>
      <point x="400" y="199" type="curve"/>
      <point x="390" y="199" type="line"/>
      <point x="392" y="232"/>
      <point x="394" y="255"/>
      <point x="394" y="284" type="curve" smooth="yes"/>
      <point x="388" y="431" type="line" smooth="yes"/>
      <point x="386" y="478"/>
      <point x="364" y="500"/>
      <point x="316" y="500" type="curve" smooth="yes"/>
      <point x="151" y="500" type="line" smooth="yes"/>
      <point x="98" y="500"/>
      <point x="76" y="476"/>
      <point x="69" y="421" type="curve" smooth="yes"/>
      <point x="-1" y="0" type="line"/>
      <point x="189" y="0" type="line"/>
      <point x="246" y="348" type="line"/>
      <point x="255" y="348" type="line"/>
      <point x="273" y="141" type="line" smooth="yes"/>
      <point x="275" y="98"/>
      <point x="302" y="73"/>
      <point x="346" y="73" type="curve" smooth="yes"/>
      <point x="426" y="73" type="line" smooth="yes"/>
      <point x="470" y="73"/>
      <point x="495" y="90"/>
      <point x="508" y="133" type="curve" smooth="yes"/>
      <point x="580" y="348" type="line"/>
      <point x="590" y="348" type="line"/>
      <point x="551" y="0" type="line"/>
      <point x="741" y="0" type="line"/>
      <point x="790" y="425" type="line" smooth="yes"/>
      <point x="795" y="476"/>
      <point x="773" y="500"/>
    </contour>
  </outline>
</glyph>
<glyph name="en-cy" format="2">
  <advance width="626"/>
  <unicode hex="043D"/>
  <outline>
    <contour>
      <point x="283" y="500" type="line"/>
      <point x="76" y="500" type="line"/>
      <point x="6" y="0" type="line"/>
      <point x="213" y="0" type="line"/>
    </contour>
    <contour>
      <point x="387" y="330" type="line"/>
      <point x="252" y="330" type="line"/>
      <point x="233" y="195" type="line"/>
      <point x="369" y="195" type="line"/>
    </contour>
    <contour>
      <point x="608" y="500" type="line"/>
      <point x="402" y="500" type="line"/>
      <point x="332" y="0" type="line"/>
      <point x="538" y="0" type="line"/>
    </contour>
  </outline>
</glyph>
<glyph name="o-cy" format="2">
  <advance width="615"/>
  <unicode hex="043E"/>
  <anchor x="336" y="547" name="top"/>
  <outline>
    <contour>
      <point x="327" y="514" type="curve" smooth="yes"/>
      <point x="126" y="514"/>
      <point x="48" y="448"/>
      <point x="21" y="257" type="curve" smooth="yes"/>
      <point x="-7" y="61"/>
      <point x="80" y="-12"/>
      <point x="278" y="-12" type="curve" smooth="yes"/>
      <point x="477" y="-12"/>
      <point x="555" y="53"/>
      <point x="582" y="241" type="curve" smooth="yes"/>
      <point x="610" y="440"/>
      <point x="527" y="514"/>
    </contour>
    <contour>
      <point x="323" y="372" type="curve" smooth="yes"/>
      <point x="372" y="372"/>
      <point x="379" y="352"/>
      <point x="365" y="257" type="curve" smooth="yes"/>
      <point x="349" y="152"/>
      <point x="337" y="130"/>
      <point x="286" y="130" type="curve" smooth="yes"/>
      <point x="233" y="130"/>
      <point x="227" y="149"/>
      <point x="240" y="241" type="curve" smooth="yes"/>
      <point x="256" y="350"/>
      <point x="269" y="372"/>
    </contour>
  </outline>
</glyph>
<glyph name="tse-cy" format="2">
  <advance width="660"/>
  <unicode hex="0446"/>
  <outline>
    <contour>
      <point x="280" y="500" type="line"/>
      <point x="69" y="500" type="line"/>
      <point x="17" y="130" type="line" smooth="yes"/>
      <point x="4" y="38"/>
      <point x="53" y="-14"/>
      <point x="156" y="-14" type="curve" smooth="yes"/>
      <point x="236" y="-14"/>
      <point x="312" y="28"/>
      <point x="400" y="126" type="curve"/>
      <point x="364" y="212" type="line"/>
      <point x="316" y="174"/>
      <point x="289" y="162"/>
      <point x="258" y="162" type="curve" smooth="yes"/>
      <point x="242" y="162"/>
      <point x="232" y="167"/>
      <point x="235" y="189" type="curve" smooth="yes"/>
    </contour>
    <contour>
      <point x="465" y="5" type="line"/>
      <point x="414" y="-149" type="line"/>
      <point x="586" y="-149" type="line"/>
      <point x="608" y="0" type="line"/>
    </contour>
    <contour>
      <point x="598" y="500" type="line"/>
      <point x="389" y="500" type="line"/>
      <point x="339" y="146" type="line"/>
      <point x="358" y="134" type="line"/>
      <point x="360" y="91" type="line" smooth="yes"/>
      <point x="362" y="38"/>
      <point x="401" y="0"/>
      <point x="450" y="0" type="curve" smooth="yes"/>
      <point x="608" y="0" type="line"/>
      <point x="625" y="118" type="line"/>
      <point x="568" y="118" type="line" smooth="yes"/>
      <point x="555" y="118"/>
      <point x="545" y="128"/>
      <point x="547" y="141" type="curve" smooth="yes"/>
    </contour>
  </outline>
</glyph>
<glyph name="hardsign-cy" format="2">
  <advance width="662"/>
  <unicode hex="044A"/>
  <outline>
    <contour>
      <point x="433" y="500" type="line"/>
      <point x="230" y="471" type="line"/>
      <point x="149" y="183" type="line" smooth="yes"/>
      <point x="103" y="18"/>
      <point x="246" y="-11"/>
      <point x="376" y="-11" type="curve" smooth="yes"/>
      <point x="533" y="-11"/>
      <point x="609" y="23"/>
      <point x="627" y="161" type="curve" smooth="yes"/>
      <point x="647" y="310"/>
      <point x="598" y="339"/>
      <point x="456" y="343" type="curve" smooth="yes"/>
      <point x="404" y="344"/>
      <point x="333" y="329"/>
      <point x="262" y="283" type="curve"/>
      <point x="244" y="167" type="line"/>
      <point x="322" y="224"/>
      <point x="367" y="227"/>
      <point x="395" y="227" type="curve" smooth="yes"/>
      <point x="424" y="227"/>
      <point x="430" y="222"/>
      <point x="420" y="176" type="curve" smooth="yes"/>
      <point x="412" y="140"/>
      <point x="407" y="128"/>
      <point x="375" y="128" type="curve" smooth="yes"/>
      <point x="350" y="128"/>
      <point x="338" y="137"/>
      <point x="345" y="160" type="curve" smooth="yes"/>
    </contour>
    <contour>
      <point x="433" y="500" type="line"/>
      <point x="38" y="500" type="line"/>
      <point x="18" y="350" type="line"/>
      <point x="284" y="350" type="line"/>
    </contour>
  </outline>
</glyph>
<glyph name="iu-cy" format="2">
  <advance width="869"/>
  <unicode hex="044E"/>
  <outline>
    <contour>
      <point x="593" y="514" type="curve" smooth="yes"/>
      <point x="419" y="514"/>
      <point x="349" y="470"/>
      <point x="319" y="256" type="curve" smooth="yes"/>
      <point x="289" y="42"/>
      <point x="357" y="-11"/>
      <point x="544" y="-11" type="curve" smooth="yes"/>
      <point x="732" y="-11"/>
      <point x="806" y="34"/>
      <point x="835" y="240" type="curve" smooth="yes"/>
      <point x="866" y="462"/>
      <point x="784" y="514"/>
    </contour>
    <contour>
      <point x="286" y="500" type="line"/>
      <point x="76" y="500" type="line"/>
      <point x="6" y="0" type="line"/>
      <point x="216" y="0" type="line"/>
    </contour>
    <contour>
      <point x="398" y="323" type="line"/>
      <point x="253" y="323" type="line"/>
      <point x="235" y="187" type="line"/>
      <point x="380" y="187" type="line"/>
    </contour>
    <contour>
      <point x="580" y="359" type="curve" smooth="yes"/>
      <point x="621" y="359"/>
      <point x="630" y="345"/>
      <point x="617" y="249" type="curve" smooth="yes"/>
      <point x="605" y="161"/>
      <point x="595" y="144"/>
      <point x="549" y="144" type="curve" smooth="yes"/>
      <point x="505" y="144"/>
      <point x="496" y="155"/>
      <point x="509" y="251" type="curve" smooth="yes"/>
      <point x="522" y="343"/>
      <point x="534" y="359"/>
    </contour>
  </outline>
</glyph>
<glyph name="je-cy" format="2">
  <advance width="311"/>
  <unicode hex="0458"/>
  <outline>
    <contour>
      <point x="291" y="500" type="line"/>
      <point x="81" y="500" type="line"/>
      <point x="18" y="62" type="line" smooth="yes"/>
      <point x="10" y="5"/>
      <point x="-14" y="-42"/>
      <point x="-71" y="-95" type="curve"/>
      <point x="44" y="-192" type="line"/>
      <point x="146" y="-151"/>
      <point x="213" y="-50"/>
      <point x="226" y="54" type="curve" smooth="yes"/>
    </contour>
    <contour>
      <point x="252" y="729" type="curve" smooth="yes"/>
      <point x="173" y="729" type="line" smooth="yes"/>
      <point x="129" y="729"/>
      <point x="106" y="711"/>
      <point x="101" y="671" type="curve" smooth="yes"/>
      <point x="94" y="620" type="line" smooth="yes"/>
      <point x="89" y="575"/>
      <point x="108" y="554"/>
      <point x="154" y="554" type="curve" smooth="yes"/>
      <point x="233" y="554" type="line" smooth="yes"/>
      <point x="276" y="554"/>
      <point x="299" y="572"/>
      <point x="304" y="612" type="curve" smooth="yes"/>
      <point x="311" y="663" type="line" smooth="yes"/>
      <point x="317" y="708"/>
      <point x="298" y="729"/>
    </contour>
  </outline>
</glyph>
<glyph name="nje-cy" format="2">
  <advance width="839"/>
  <unicode hex="045A"/>
  <outline>
    <contour>
      <point x="572" y="500" type="line"/>
      <point x="375" y="500" type="line"/>
      <point x="328" y="162" type="line" smooth="yes"/>
      <point x="311" y="16"/>
      <point x="416" y="-6"/>
      <point x="554" y="-6" type="curve" smooth="yes"/>
      <point x="710" y="-6"/>
      <point x="786" y="28"/>
      <point x="804" y="161" type="curve" smooth="yes"/>
      <point x="824" y="310"/>
      <point x="775" y="339"/>
      <point x="635" y="343" type="curve" smooth="yes"/>
      <point x="584" y="344"/>
      <point x="513" y="329"/>
      <point x="443" y="283" type="curve"/>
      <point x="425" y="167" type="line"/>
      <point x="502" y="224"/>
      <point x="546" y="227"/>
      <point x="573" y="227" type="curve" smooth="yes"/>
      <point x="601" y="227"/>
      <point x="604" y="222"/>
      <point x="597" y="176" type="curve" smooth="yes"/>
      <point x="592" y="140"/>
      <point x="584" y="128"/>
      <point x="556" y="128" type="curve" smooth="yes"/>
      <point x="534" y="128"/>
      <point x="521" y="137"/>
      <point x="524" y="160" type="curve" smooth="yes"/>
    </contour>
    <contour>
      <point x="266" y="500" type="line"/>
      <point x="76" y="500" type="line"/>
      <point x="6" y="0" type="line"/>
      <point x="196" y="0" type="line"/>
    </contour>
    <contour>
      <point x="357" y="325" type="line"/>
      <point x="235" y="325" type="line"/>
      <point x="218" y="201" type="line"/>
      <point x="339" y="201" type="line"/>
    </contour>
  </outline>
</glyph>
<glyph name="yusbig-cy" format="2">
  <advance width="799"/>
  <unicode hex="046B"/>
  <outline>
    <contour>
      <point x="-44" y="0" type="curve"/>
      <point x="171" y="0" type="line"/>
      <point x="257" y="189"/>
      <point x="247" y="199"/>
      <point x="300" y="199" type="curve"/>
      <point x="295" y="180"/>
      <point x="291" y="165"/>
      <point x="290" y="155" type="curve" smooth="yes"/>
      <point x="268" y="0" type="line"/>
      <point x="461" y="0" type="line"/>
      <point x="483" y="155" type="line" smooth="yes"/>
      <point x="484" y="165"/>
      <point x="484" y="180"/>
      <point x="486" y="199" type="curve"/>
      <point x="541" y="199"/>
      <point x="525" y="192"/>
      <point x="559" y="0" type="curve"/>
      <point x="773" y="0" type="line"/>
      <point x="723" y="235"/>
      <point x="726" y="239"/>
      <point x="589" y="265" type="curve"/>
      <point x="590" y="269" type="line"/>
      <point x="816" y="500" type="line"/>
      <point x="55" y="500" type="line"/>
      <point x="216" y="269" type="line"/>
      <point x="215" y="265" type="line"/>
      <point x="70" y="239"/>
      <point x="73" y="235"/>
    </contour>
    <contour>
      <point x="402" y="265" type="line"/>
      <point x="321" y="378" type="line"/>
      <point x="515" y="378" type="line"/>
    </contour>
  </outline>
</glyph>
<glyph name="fita-cy" format="2">
  <advance width="611"/>
  <unicode hex="0473"/>
  <outline>
    <contour>
      <point x="269" y="-12" type="curve" smooth="yes"/>
      <point x="473" y="-12"/>
      <point x="558" y="57"/>
      <point x="585" y="249" type="curve" smooth="yes"/>
      <point x="612" y="444"/>
      <point x="547" y="514"/>
      <point x="343" y="514" type="curve" smooth="yes"/>
      <point x="138" y="514"/>
      <point x="53" y="444"/>
      <point x="26" y="249" type="curve" smooth="yes"/>
      <point x="-1" y="57"/>
      <point x="64" y="-12"/>
    </contour>
    <contour>
      <point x="289" y="130" type="curve" smooth="yes"/>
      <point x="232" y="130"/>
      <point x="222" y="149"/>
      <point x="236" y="249" type="curve" smooth="yes"/>
      <point x="250" y="352"/>
      <point x="266" y="372"/>
      <point x="323" y="372" type="curve" smooth="yes"/>
      <point x="379" y="372"/>
      <point x="389" y="352"/>
      <point x="375" y="249" type="curve" smooth="yes"/>
      <point x="361" y="149"/>
      <point x="345" y="130"/>
    </contour>
    <contour>
      <point x="186" y="208" type="line"/>
      <point x="408" y="208" type="line"/>
      <point x="421" y="300" type="line"/>
      <point x="199" y="300" type="line"/>
    </contour>
  </outline>
</glyph>
<glyph name="Gheupturn-cy" format="2">
  <advance width="559"/>
  <unicode hex="0490"/>
  <outline>
    <contour>
      <point x="254" y="694" type="curve" smooth="yes"/>
      <point x="169" y="694"/>
      <point x="102" y="634"/>
      <point x="89" y="541" type="curve" smooth="yes"/>
      <point x="13" y="0" type="line"/>
      <point x="230" y="0" type="line"/>
      <point x="299" y="488" type="line" smooth="yes"/>
      <point x="303" y="509"/>
      <point x="326" y="528"/>
      <point x="350" y="528" type="curve" smooth="yes"/>
      <point x="581" y="528" type="line"/>
      <point x="605" y="679" type="line"/>
      <point x="533" y="693"/>
      <point x="374" y="694"/>
    </contour>
    <contour>
      <point x="630" y="843" type="line"/>
      <point x="485" y="843" type="line"/>
      <point x="442" y="645" type="line"/>
      <point x="605" y="679" type="line"/>
    </contour>
  </outline>
</glyph>
<glyph name="ghemiddlehook-cy" format="2">
  <advance width="582"/>
  <unicode hex="0495"/>
  <outline>
    <contour>
      <point x="220" y="508" type="curve" smooth="yes"/>
      <point x="120" y="508"/>
      <point x="69" y="468"/>
      <point x="56" y="376" type="curve" smooth="yes"/>
      <point x="3" y="0" type="line"/>
      <point x="211" y="0" type="line"/>
      <point x="257" y="325" type="line" smooth="yes"/>
      <point x="260" y="347"/>
      <point x="270" y="355"/>
      <point x="295" y="355" type="curve" smooth="yes"/>
      <point x="483" y="355" type="line"/>
      <point x="512" y="491" type="line"/>
      <point x="434" y="508"/>
      <point x="318" y="508"/>
    </contour>
    <contour>
      <point x="225" y="-210" type="line"/>
      <point x="369" y="-196"/>
      <point x="510" y="-121"/>
      <point x="538" y="80" type="curve" smooth="yes"/>
      <point x="557" y="212"/>
      <point x="511" y="289"/>
      <point x="386" y="289" type="curve" smooth="yes"/>
      <point x="324" y="289"/>
      <point x="258" y="270"/>
      <point x="212" y="238" type="curve"/>
      <point x="196" y="107" type="line"/>
      <point x="232" y="133"/>
      <point x="263" y="137"/>
      <point x="281" y="137" type="curve" smooth="yes"/>
      <point x="325" y="137"/>
      <point x="330" y="112"/>
      <point x="323" y="62" type="curve" smooth="yes"/>
      <point x="314" y="-1"/>
      <point x="295" y="-42"/>
      <point x="224" y="-70" type="curve"/>
    </contour>
  </outline>
</glyph>
<glyph name="zhedescender-cy" format="2">
  <advance width="904"/>
  <unicode hex="0497"/>
  <outline>
    <contour>
      <point x="897" y="136" type="line"/>
      <point x="662" y="136" type="line"/>
      <point x="643" y="0" type="line"/>
      <point x="725" y="0" type="line"/>
      <point x="720" y="-136" type="line"/>
      <point x="859" y="-136" type="line"/>
    </contour>
    <component base="zhe-cy"/>
  </outline>
</glyph>
<glyph name="Kadescender-cy" format="2">
  <advance width="682"/>
  <unicode hex="049A"/>
  <outline>
    <contour>
      <point x="671" y="142" type="line"/>
      <point x="423" y="142" type="line"/>
      <point x="403" y="0" type="line"/>
      <point x="651" y="0" type="line"/>
    </contour>
    <contour>
      <point x="652" y="7" type="line"/>
      <point x="479" y="7" type="line"/>
      <point x="472" y="-151" type="line"/>
      <point x="629" y="-151" type="line"/>
    </contour>
    <component base="Ka-cy" xOffset="-4"/>
  </outline>
</glyph>
<glyph name="kaverticalstroke-cy" format="2">
  <advance width="629"/>
  <unicode hex="049D"/>
  <anchor x="353" y="547" name="top"/>
  <outline>
    <contour>
      <point x="648" y="500" type="curve"/>
      <point x="436" y="500" type="line"/>
      <point x="370" y="322"/>
      <point x="376" y="325"/>
      <point x="291" y="325" type="curve"/>
      <point x="276" y="191" type="line"/>
      <point x="356" y="191"/>
      <point x="351" y="213"/>
      <point x="377" y="0" type="curve"/>
      <point x="595" y="0" type="line"/>
      <point x="560" y="254"/>
      <point x="563" y="238"/>
      <point x="445" y="257" type="curve"/>
      <point x="446" y="263" type="line"/>
      <point x="568" y="281"/>
      <point x="549" y="272"/>
    </contour>
    <contour>
      <point x="290" y="500" type="line"/>
      <point x="81" y="500" type="line"/>
      <point x="11" y="0" type="line"/>
      <point x="220" y="0" type="line"/>
      <point x="241" y="152" type="line" smooth="yes"/>
      <point x="246" y="183"/>
      <point x="238" y="229"/>
      <point x="227" y="262" type="curve"/>
      <point x="252" y="299"/>
      <point x="269" y="350"/>
      <point x="275" y="391" type="curve" smooth="yes"/>
    </contour>
    <contour>
      <point x="349" y="325" type="line"/>
      <point x="217" y="325" type="line"/>
      <point x="198" y="191" type="line"/>
      <point x="330" y="191" type="line"/>
    </contour>
    <contour>
      <point x="254" y="87" type="line"/>
      <point x="314" y="87" type="line"/>
      <point x="361" y="424" type="line"/>
      <point x="301" y="424" type="line"/>
    </contour>
  </outline>
</glyph>
<glyph name="Kastroke-cy" format="2">
  <advance width="701"/>
  <unicode hex="049E"/>
  <outline>
    <contour>
      <point x="18" y="525" type="line"/>
      <point x="436" y="525" type="line"/>
      <point x="452" y="645" type="line"/>
      <point x="34" y="645" type="line"/>
    </contour>
    <component base="Ka-cy" xOffset="33"/>
  </outline>
</glyph>
<glyph name="enghe-cy" format="2">
  <advance width="757"/>
  <unicode hex="04A5"/>
  <outline>
    <contour>
      <point x="288" y="500" type="line"/>
      <point x="81" y="500" type="line"/>
      <point x="10" y="0" type="line"/>
      <point x="217" y="0" type="line"/>
    </contour>
    <contour>
      <point x="386" y="330" type="line"/>
      <point x="257" y="330" type="line"/>
      <point x="238" y="195" type="line"/>
      <point x="367" y="195" type="line"/>
    </contour>
    <contour>
      <point x="547" y="508" type="curve" smooth="yes"/>
      <point x="447" y="508"/>
      <point x="395" y="468"/>
      <point x="382" y="376" type="curve" smooth="yes"/>
      <point x="329" y="0" type="line"/>
      <point x="537" y="0" type="line"/>
      <point x="582" y="315" type="line" smooth="yes"/>
      <point x="585" y="337"/>
      <point x="595" y="345"/>
      <point x="620" y="345" type="curve" smooth="yes"/>
      <point x="755" y="345" type="line"/>
      <point x="785" y="491" type="line"/>
      <point x="721" y="508"/>
      <point x="630" y="508"/>
    </contour>
  </outline>
</glyph>
<glyph name="Ustrait-cy" format="2">
  <advance width="649"/>
  <unicode hex="04AE"/>
  <outline>
    <contour>
      <point x="715" y="690" type="line"/>
      <point x="484" y="690" type="line"/>
      <point x="367" y="467" type="line" smooth="yes"/>
      <point x="351" y="434"/>
      <point x="340" y="396"/>
      <point x="337" y="368" type="curve"/>
      <point x="322" y="368" type="line"/>
      <point x="323" y="399"/>
      <point x="324" y="429"/>
      <point x="315" y="469" type="curve" smooth="yes"/>
      <point x="262" y="690" type="line"/>
      <point x="46" y="690" type="line"/>
      <point x="209" y="206" type="line"/>
      <point x="417" y="205" type="line"/>
    </contour>
    <contour>
      <point x="436" y="328" type="line"/>
      <point x="219" y="328" type="line"/>
      <point x="173" y="0" type="line"/>
      <point x="391" y="0" type="line"/>
    </contour>
  </outline>
</glyph>
<glyph name="hadescender-cy" format="2">
  <advance width="663"/>
  <unicode hex="04B3"/>
  <outline>
    <contour>
      <point x="637" y="136" type="line"/>
      <point x="402" y="136" type="line"/>
      <point x="383" y="0" type="line"/>
      <point x="465" y="0" type="line"/>
      <point x="460" y="-136" type="line"/>
      <point x="599" y="-136" type="line"/>
    </contour>
    <component base="x"/>
  </outline>
</glyph>
<glyph name="Entail-cy" format="2">
  <advance width="734"/>
  <unicode hex="04C9"/>
  <outline>
    <contour>
      <point x="414" y="142" type="line"/>
      <point x="394" y="0" type="line"/>
      <point x="514" y="0" type="line"/>
      <point x="478" y="-151" type="line"/>
      <point x="635" y="-151" type="line"/>
      <point x="687" y="0" type="line"/>
      <point x="707" y="142" type="line"/>
    </contour>
    <component base="En-cy" xOffset="-4"/>
  </outline>
</glyph>
<glyph name="Emtail-cy" format="2">
  <advance width="988"/>
  <unicode hex="04CD"/>
  <outline>
    <contour>
      <point x="692" y="142" type="line"/>
      <point x="672" y="0" type="line"/>
      <point x="792" y="0" type="line"/>
      <point x="756" y="-151" type="line"/>
      <point x="913" y="-151" type="line"/>
      <point x="965" y="0" type="line"/>
      <point x="985" y="142" type="line"/>
    </contour>
    <component base="Em-cy" xOffset="-3"/>
  </outline>
</glyph>
<glyph name="Schwa-cy" format="2">
  <advance width="643"/>
  <unicode hex="04D8"/>
  <anchor x="388" y="735" name="top"/>
  <outline>
    <contour>
      <point x="251" y="-12" type="curve" smooth="yes"/>
      <point x="467" y="-12"/>
      <point x="576" y="60"/>
      <point x="617" y="352" type="curve" smooth="yes"/>
      <point x="651" y="597"/>
      <point x="596" y="703"/>
      <point x="346" y="703" type="curve" smooth="yes"/>
      <point x="240" y="703"/>
      <point x="151" y="684"/>
      <point x="105" y="668" type="curve"/>
      <point x="102" y="509" type="line"/>
      <point x="172" y="518"/>
      <point x="242" y="519"/>
      <point x="281" y="519" type="curve" smooth="yes"/>
      <point x="391" y="519"/>
      <point x="411" y="511"/>
      <point x="388" y="347" type="curve" smooth="yes"/>
      <point x="367" y="196"/>
      <point x="349" y="160"/>
      <point x="281" y="160" type="curve" smooth="yes"/>
      <point x="229" y="160"/>
      <point x="215" y="179"/>
      <point x="220" y="218" type="curve" smooth="yes"/>
      <point x="227" y="268"/>
      <point x="250" y="288"/>
      <point x="303" y="288" type="curve" smooth="yes"/>
      <point x="466" y="288" type="line"/>
      <point x="484" y="418" type="line"/>
      <point x="293" y="418" type="line" smooth="yes"/>
      <point x="120" y="418"/>
      <point x="41" y="368"/>
      <point x="18" y="200" type="curve" smooth="yes"/>
      <point x="-5" y="43"/>
      <point x="62" y="-12"/>
    </contour>
  </outline>
</glyph>
<glyph name="hastroke-cy" format="2">
  <advance width="618"/>
  <unicode hex="04FF"/>
  <outline>
    <contour>
      <point x="588" y="309" type="line"/>
      <point x="48" y="309" type="line"/>
      <point x="30" y="209" type="line"/>
      <point x="570" y="209" type="line"/>
    </contour>
    <component base="ha-cy" xOffset="6"/>
  </outline>
</glyph>
<glyph name="Elhook-cy" format="2">
  <advance width="688"/>
  <unicode hex="0512"/>
  <outline>
    <contour>
      <point x="682" y="690" type="line"/>
      <point x="362" y="690" type="line" smooth="yes"/>
      <point x="249" y="690"/>
      <point x="179" y="631"/>
      <point x="156" y="517" type="curve" smooth="yes"/>
      <point x="128" y="384"/>
      <point x="100" y="280"/>
      <point x="72" y="222" type="curve" smooth="yes"/>
      <point x="50" y="174"/>
      <point x="14" y="168"/>
      <point x="-34" y="163" type="curve"/>
      <point x="-43" y="-5" type="line"/>
      <point x="87" y="-29"/>
      <point x="194" y="4"/>
      <point x="263" y="164" type="curve" smooth="yes"/>
      <point x="298" y="244"/>
      <point x="333" y="385"/>
      <point x="359" y="502" type="curve" smooth="yes"/>
      <point x="365" y="532"/>
      <point x="385" y="548"/>
      <point x="418" y="548" type="curve" smooth="yes"/>
      <point x="662" y="548" type="line"/>
    </contour>
    <contour>
      <point x="480" y="690" type="line"/>
      <point x="396" y="91" type="line" smooth="yes"/>
      <point x="385" y="17"/>
      <point x="353" y="-55"/>
      <point x="260" y="-55" type="curve"/>
      <point x="242" y="-182" type="line"/>
      <point x="390" y="-221"/>
      <point x="578" y="-160"/>
      <point x="610" y="69" type="curve" smooth="yes"/>
      <point x="697" y="690" type="line"/>
    </contour>
  </outline>
</glyph>
<glyph name="elhook-cy" format="2">
  <advance width="619"/>
  <unicode hex="0513"/>
  <outline>
    <contour>
      <point x="611" y="500" type="line"/>
      <point x="293" y="500" type="line" smooth="yes"/>
      <point x="207" y="500"/>
      <point x="156" y="455"/>
      <point x="138" y="370" type="curve" smooth="yes"/>
      <point x="117" y="272"/>
      <point x="101" y="215"/>
      <point x="90" y="188" type="curve" smooth="yes"/>
      <point x="74" y="146"/>
      <point x="41" y="153"/>
      <point x="2" y="148" type="curve"/>
      <point x="1" y="-5" type="line"/>
      <point x="114" y="-29"/>
      <point x="232" y="-7"/>
      <point x="270" y="132" type="curve" smooth="yes"/>
      <point x="282" y="174"/>
      <point x="305" y="255"/>
      <point x="323" y="329" type="curve" smooth="yes"/>
      <point x="328" y="352"/>
      <point x="344" y="364"/>
      <point x="370" y="364" type="curve" smooth="yes"/>
      <point x="592" y="364" type="line"/>
    </contour>
    <contour>
      <point x="554" y="20" type="curve" smooth="yes"/>
      <point x="621" y="500" type="line"/>
      <point x="415" y="500" type="line"/>
      <point x="348" y="20" type="line" smooth="yes"/>
      <point x="342" y="-18"/>
      <point x="324" y="-55"/>
      <point x="270" y="-55" type="curve"/>
      <point x="252" y="-182" type="line"/>
      <point x="371" y="-197"/>
      <point x="528" y="-164"/>
    </contour>
  </outline>
</glyph>
<glyph name="Shhadescender-cy" format="2">
  <advance width="713"/>
  <unicode hex="0526"/>
  <outline>
    <contour>
      <point x="705" y="142" type="line"/>
      <point x="412" y="142" type="line"/>
      <point x="392" y="0" type="line"/>
      <point x="685" y="0" type="line"/>
    </contour>
    <contour>
      <point x="686" y="7" type="line"/>
      <point x="513" y="7" type="line"/>
      <point x="506" y="-151" type="line"/>
      <point x="663" y="-151" type="line"/>
    </contour>
    <component base="Shha-cy" xOffset="-4"/>
  </outline>
</glyph>
<glyph name="Germandbls" format="2">
  <advance width="734"/>
  <unicode hex="1E9E"/>
  <outline>
    <contour>
      <point x="261" y="694" type="curve" smooth="yes"/>
      <point x="167" y="694"/>
      <point x="98" y="636"/>
      <point x="85" y="541" type="curve" smooth="yes"/>
      <point x="9" y="0" type="line"/>
      <point x="227" y="0" type="line"/>
      <point x="295" y="488" type="line" smooth="yes"/>
      <point x="299" y="518"/>
      <point x="313" y="528"/>
      <point x="349" y="528" type="curve" smooth="yes"/>
      <point x="669" y="528" type="line"/>
      <point x="693" y="679" type="line"/>
      <point x="571" y="693"/>
      <point x="380" y="694"/>
    </contour>
    <contour>
      <point x="262" y="6" type="line"/>
      <point x="327" y="-5"/>
      <point x="387" y="-14"/>
      <point x="447" y="-14" type="curve" smooth="yes"/>
      <point x="590" y="-14"/>
      <point x="693" y="45"/>
      <point x="711" y="204" type="curve" smooth="yes"/>
      <point x="725" y="331"/>
      <point x="665" y="400"/>
      <point x="577" y="398" type="curve" smooth="yes"/>
      <point x="545.039" y="397.116" type="line"/>
      <point x="546" y="400" type="line"/>
      <point x="565" y="409"/>
      <point x="584" y="424"/>
      <point x="598" y="441" type="curve" smooth="yes"/>
      <point x="669" y="528" type="line"/>
      <point x="462" y="528" type="line"/>
      <point x="360" y="392" type="line"/>
      <point x="343" y="263" type="line"/>
      <point x="452" y="263" type="line" smooth="yes"/>
      <point x="502" y="263"/>
      <point x="505" y="238"/>
      <point x="500" y="212" type="curve" smooth="yes"/>
      <point x="487" y="146"/>
      <point x="444" y="150"/>
      <point x="377" y="151" type="curve" smooth="yes"/>
      <point x="348" y="151"/>
      <point x="314" y="154"/>
      <point x="276" y="157" type="curve"/>
    </contour>
  </outline>
</glyph>
<glyph name="figuredash" format="2">
  <advance width="450"/>
  <unicode hex="2012"/>
  <outline>
    <contour>
      <point x="418" y="318" type="line"/>
      <point x="52" y="318" type="line"/>
      <point x="34" y="196" type="line"/>
      <point x="400" y="196" type="line"/>
    </contour>
  </outline>
</glyph>
<glyph name="emdash" format="2">
  <advance width="822"/>
  <unicode hex="2014"/>
  <outline>
    <contour>
      <point x="781" y="318" type="line"/>
      <point x="50" y="318" type="line"/>
      <point x="32" y="196" type="line"/>
      <point x="763" y="196" type="line"/>
    </contour>
  </outline>
</glyph>
<glyph name="dagger" format="2">
  <advance width="527"/>
  <unicode hex="2020"/>
  <outline>
    <contour>
      <point x="391" y="690" type="curve" smooth="yes"/>
      <point x="259" y="690" type="line" smooth="yes"/>
      <point x="252" y="690"/>
      <point x="248" y="687"/>
      <point x="247" y="680" type="curve" smooth="yes"/>
      <point x="239" y="623" type="line" smooth="yes"/>
      <point x="233" y="578"/>
      <point x="234" y="552"/>
      <point x="237" y="501" type="curve"/>
      <point x="359" y="501" type="line"/>
      <point x="376" y="552"/>
      <point x="385" y="578"/>
      <point x="391" y="623" type="curve" smooth="yes"/>
      <point x="399" y="680" type="line" smooth="yes"/>
      <point x="400" y="687"/>
      <point x="398" y="690"/>
    </contour>
    <contour>
      <point x="56" y="488" type="curve" smooth="yes"/>
      <point x="37" y="359" type="line" smooth="yes"/>
      <point x="36" y="352"/>
      <point x="39" y="349"/>
      <point x="46" y="349" type="curve" smooth="yes"/>
      <point x="88" y="349" type="line" smooth="yes"/>
      <point x="121" y="349"/>
      <point x="152" y="352"/>
      <point x="197" y="364" type="curve"/>
      <point x="214" y="483" type="line"/>
      <point x="173" y="495"/>
      <point x="142" y="498"/>
      <point x="109" y="498" type="curve" smooth="yes"/>
      <point x="67" y="498" type="line" smooth="yes"/>
      <point x="60" y="498"/>
      <point x="57" y="495"/>
    </contour>
    <contour>
      <point x="379" y="483" type="curve"/>
      <point x="362" y="364" type="line"/>
      <point x="403" y="352"/>
      <point x="434" y="349"/>
      <point x="467" y="349" type="curve" smooth="yes"/>
      <point x="509" y="349" type="line" smooth="yes"/>
      <point x="516" y="349"/>
      <point x="519" y="352"/>
      <point x="520" y="359" type="curve" smooth="yes"/>
      <point x="539" y="488" type="line" smooth="yes"/>
      <point x="540" y="495"/>
      <point x="537" y="498"/>
      <point x="530" y="498" type="curve" smooth="yes"/>
      <point x="488" y="498" type="line" smooth="yes"/>
      <point x="455" y="498"/>
      <point x="424" y="495"/>
    </contour>
    <contour>
      <point x="182" y="207" type="curve" smooth="yes"/>
      <point x="161" y="61" type="line"/>
      <point x="148" y="-130" type="line"/>
      <point x="270" y="-130" type="line"/>
      <point x="311" y="61" type="line"/>
      <point x="332" y="207" type="line" smooth="yes"/>
      <point x="339" y="257"/>
      <point x="340" y="300"/>
      <point x="336" y="345" type="curve"/>
      <point x="216" y="345" type="line"/>
      <point x="200" y="300"/>
      <point x="189" y="257"/>
    </contour>
  </outline>
</glyph>
<glyph name="bullet" format="2">
  <advance width="379"/>
  <unicode hex="2022"/>
  <outline>
    <contour>
      <point x="216" y="402" type="curve" smooth="yes"/>
      <point x="192" y="402" type="line" smooth="yes"/>
      <point x="95" y="402"/>
      <point x="67" y="375"/>
      <point x="54" y="284" type="curve" smooth="yes"/>
      <point x="51" y="267" type="line" smooth="yes"/>
      <point x="38" y="168"/>
      <point x="68" y="133"/>
      <point x="159" y="133" type="curve" smooth="yes"/>
      <point x="186" y="133" type="line" smooth="yes"/>
      <point x="277" y="133"/>
      <point x="305" y="160"/>
      <point x="319" y="259" type="curve" smooth="yes"/>
      <point x="322" y="276" type="line" smooth="yes"/>
      <point x="333" y="367"/>
      <point x="304" y="402"/>
    </contour>
  </outline>
</glyph>
<glyph name="guilsinglleft" format="2">
  <advance width="320"/>
  <unicode hex="2039"/>
  <outline>
    <contour>
      <point x="183" y="470" type="line"/>
      <point x="21" y="272" type="line"/>
      <point x="18" y="227" type="line"/>
      <point x="160" y="25" type="line"/>
      <point x="270" y="97" type="line"/>
      <point x="208" y="251" type="line"/>
      <point x="296" y="400" type="line"/>
    </contour>
  </outline>
</glyph>
<glyph name="guilsinglright" format="2">
  <advance width="319"/>
  <unicode hex="203A"/>
  <outline>
    <contour>
      <point x="147" y="470" type="line"/>
      <point x="37" y="399" type="line"/>
      <point x="99" y="244" type="line"/>
      <point x="11" y="95" type="line"/>
      <point x="124" y="25" type="line"/>
      <point x="286" y="224" type="line"/>
      <point x="289" y="269" type="line"/>
    </contour>
  </outline>
</glyph>
<glyph name="zerosuperior" format="2">
  <advance width="440"/>
  <unicode hex="2070"/>
  <outline>
    <contour>
      <point x="283" y="781" type="curve" smooth="yes"/>
      <point x="120" y="781"/>
      <point x="68" y="665"/>
      <point x="68" y="485" type="curve" smooth="yes"/>
      <point x="68" y="381"/>
      <point x="130" y="349"/>
      <point x="245" y="349" type="curve" smooth="yes"/>
      <point x="408" y="349"/>
      <point x="460" y="465"/>
      <point x="460" y="645" type="curve" smooth="yes"/>
      <point x="460" y="749"/>
      <point x="398" y="781"/>
    </contour>
    <contour>
      <point x="277" y="664" type="curve" smooth="yes"/>
      <point x="308" y="664"/>
      <point x="309" y="647"/>
      <point x="297" y="565" type="curve" smooth="yes"/>
      <point x="285" y="483"/>
      <point x="280" y="466"/>
      <point x="249" y="466" type="curve" smooth="yes"/>
      <point x="219" y="466"/>
      <point x="218" y="483"/>
      <point x="230" y="565" type="curve" smooth="yes"/>
      <point x="242" y="647"/>
      <point x="247" y="664"/>
    </contour>
  </outline>
</glyph>
<glyph name="foursuperior" format="2">
  <advance width="448"/>
  <unicode hex="2074"/>
  <outline>
    <contour>
      <point x="197" y="776" type="line"/>
      <point x="52" y="487" type="line" smooth="yes"/>
      <point x="35" y="455"/>
      <point x="53" y="425"/>
      <point x="87" y="425" type="curve" smooth="yes"/>
      <point x="410" y="425" type="line"/>
      <point x="449" y="437" type="line"/>
      <point x="462" y="533" type="line"/>
      <point x="240" y="533" type="line" smooth="yes"/>
      <point x="231" y="533"/>
      <point x="227" y="539"/>
      <point x="231" y="548" type="curve" smooth="yes"/>
      <point x="346" y="776" type="line"/>
    </contour>
    <contour>
      <point x="446" y="684" type="line"/>
      <point x="326" y="684" type="line"/>
      <point x="296" y="620" type="line"/>
      <point x="260" y="360" type="line"/>
      <point x="401" y="360" type="line"/>
    </contour>
  </outline>
</glyph>
<glyph name="fivesuperior" format="2">
  <advance width="404"/>
  <unicode hex="2075"/>
  <outline>
    <contour>
      <point x="420" y="773" type="line"/>
      <point x="127" y="773" type="line"/>
      <point x="87" y="574" type="line" smooth="yes"/>
      <point x="83" y="553"/>
      <point x="95" y="536"/>
      <point x="116" y="533" type="curve" smooth="yes"/>
      <point x="205" y="522" type="line" smooth="yes"/>
      <point x="237" y="518"/>
      <point x="249" y="514"/>
      <point x="249" y="500" type="curve" smooth="yes"/>
      <point x="249" y="473"/>
      <point x="232" y="469"/>
      <point x="201" y="469" type="curve" smooth="yes"/>
      <point x="171" y="469"/>
      <point x="110" y="471"/>
      <point x="69" y="472" type="curve"/>
      <point x="43" y="359" type="line"/>
      <point x="97" y="353"/>
      <point x="183" y="349"/>
      <point x="227" y="349" type="curve" smooth="yes"/>
      <point x="343" y="349"/>
      <point x="406" y="417"/>
      <point x="406" y="528" type="curve" smooth="yes"/>
      <point x="406" y="574"/>
      <point x="385" y="615"/>
      <point x="308" y="626" type="curve" smooth="yes"/>
      <point x="229" y="637" type="line"/>
      <point x="233" y="661" type="line"/>
      <point x="399" y="661" type="line"/>
    </contour>
  </outline>
</glyph>
<glyph name="sixsuperior" format="2">
  <advance width="435"/>
  <unicode hex="2076"/>
  <outline>
    <contour>
      <point x="310" y="781" type="curve" smooth="yes"/>
      <point x="185" y="781"/>
      <point x="108" y="752"/>
      <point x="82" y="562" type="curve" smooth="yes"/>
      <point x="58" y="387"/>
      <point x="98" y="349"/>
      <point x="234" y="349" type="curve" smooth="yes"/>
      <point x="368" y="349"/>
      <point x="436" y="402"/>
      <point x="436" y="540" type="curve" smooth="yes"/>
      <point x="436" y="599"/>
      <point x="394" y="626"/>
      <point x="317" y="626" type="curve" smooth="yes"/>
      <point x="255" y="626"/>
      <point x="214" y="610"/>
      <point x="164" y="547" type="curve"/>
      <point x="159" y="491" type="line"/>
      <point x="211" y="518"/>
      <point x="225" y="527"/>
      <point x="254" y="527" type="curve" smooth="yes"/>
      <point x="269" y="527"/>
      <point x="281" y="524"/>
      <point x="281" y="508" type="curve" smooth="yes"/>
      <point x="281" y="488"/>
      <point x="276" y="462"/>
      <point x="250" y="462" type="curve" smooth="yes"/>
      <point x="220" y="462"/>
      <point x="225" y="494"/>
      <point x="234" y="555" type="curve" smooth="yes"/>
      <point x="249" y="657"/>
      <point x="250" y="670"/>
      <point x="295" y="670" type="curve" smooth="yes"/>
      <point x="347" y="670"/>
      <point x="388" y="670"/>
      <point x="424" y="670" type="curve"/>
      <point x="443" y="768" type="line"/>
      <point x="399" y="781"/>
      <point x="333" y="781"/>
    </contour>
  </outline>
</glyph>
<glyph name="eightsuperior" format="2">
  <advance width="447"/>
  <unicode hex="2078"/>
  <outline>
    <contour>
      <point x="297" y="781" type="curve" smooth="yes"/>
      <point x="165" y="781"/>
      <point x="123" y="747"/>
      <point x="112" y="669" type="curve" smooth="yes"/>
      <point x="106" y="627"/>
      <point x="121" y="582"/>
      <point x="168" y="574" type="curve"/>
      <point x="168" y="571" type="line"/>
      <point x="103" y="564"/>
      <point x="80" y="514"/>
      <point x="72" y="461" type="curve" smooth="yes"/>
      <point x="61" y="377"/>
      <point x="105" y="349"/>
      <point x="241" y="349" type="curve" smooth="yes"/>
      <point x="378" y="349"/>
      <point x="425" y="377"/>
      <point x="436" y="461" type="curve" smooth="yes"/>
      <point x="444" y="514"/>
      <point x="435" y="564"/>
      <point x="372" y="571" type="curve"/>
      <point x="372" y="574" type="line"/>
      <point x="421" y="582"/>
      <point x="450" y="627"/>
      <point x="456" y="669" type="curve" smooth="yes"/>
      <point x="467" y="747"/>
      <point x="430" y="781"/>
    </contour>
    <contour>
      <point x="264" y="523" type="curve" smooth="yes"/>
      <point x="289" y="523"/>
      <point x="295" y="515"/>
      <point x="291" y="485" type="curve" smooth="yes"/>
      <point x="287" y="460"/>
      <point x="279" y="449"/>
      <point x="254" y="449" type="curve" smooth="yes"/>
      <point x="227" y="449"/>
      <point x="221" y="460"/>
      <point x="225" y="485" type="curve" smooth="yes"/>
      <point x="229" y="515"/>
      <point x="236" y="523"/>
    </contour>
    <contour>
      <point x="287" y="687" type="curve" smooth="yes"/>
      <point x="308" y="687"/>
      <point x="313" y="681"/>
      <point x="310" y="657" type="curve" smooth="yes"/>
      <point x="306" y="629"/>
      <point x="299" y="622"/>
      <point x="278" y="622" type="curve" smooth="yes"/>
      <point x="255" y="622"/>
      <point x="250" y="628"/>
      <point x="254" y="657" type="curve" smooth="yes"/>
      <point x="257" y="681"/>
      <point x="265" y="687"/>
    </contour>
  </outline>
</glyph>
<glyph name="naira" format="2">
  <advance width="776"/>
  <unicode hex="20A6"/>
  <outline>
    <contour>
      <point x="761" y="690" type="line"/>
      <point x="562" y="690" type="line"/>
      <point x="520" y="396" type="line" smooth="yes"/>
      <point x="515" y="357"/>
      <point x="514" y="324"/>
      <point x="518" y="279" type="curve"/>
      <point x="510" y="279" type="line"/>
      <point x="498" y="328"/>
      <point x="484" y="365"/>
      <point x="468" y="398" type="curve" smooth="yes"/>
      <point x="352" y="623" type="line" smooth="yes"/>
      <point x="333" y="663"/>
      <point x="321" y="690"/>
      <point x="276" y="690" type="curve" smooth="yes"/>
      <point x="204" y="690" type="line" smooth="yes"/>
      <point x="155" y="690"/>
      <point x="132" y="668"/>
      <point x="125" y="619" type="curve" smooth="yes"/>
      <point x="38" y="0" type="line"/>
      <point x="237" y="0" type="line"/>
      <point x="280" y="290" type="line" smooth="yes"/>
      <point x="286" y="334"/>
      <point x="287" y="375"/>
      <point x="286" y="418" type="curve"/>
      <point x="293" y="418" type="line"/>
      <point x="302" y="376"/>
      <point x="312" y="336"/>
      <point x="328" y="304" type="curve" smooth="yes"/>
      <point x="446" y="67" type="line" smooth="yes"/>
      <point x="465" y="26"/>
      <point x="478" y="0"/>
      <point x="523" y="0" type="curve" smooth="yes"/>
      <point x="595" y="0" type="line" smooth="yes"/>
      <point x="644" y="0"/>
      <point x="667" y="22"/>
      <point x="674" y="71" type="curve" smooth="yes"/>
    </contour>
    <contour>
      <point x="802" y="496" type="line"/>
      <point x="43" y="496" type="line"/>
      <point x="33" y="406" type="line"/>
      <point x="785" y="406" type="line"/>
    </contour>
    <contour>
      <point x="774" y="296" type="line"/>
      <point x="15" y="296" type="line"/>
      <point x="5" y="206" type="line"/>
      <point x="757" y="206" type="line"/>
    </contour>
  </outline>
</glyph>
<glyph name="euro" format="2">
  <advance width="642"/>
  <unicode hex="20AC"/>
  <guideline x="485" y="346" angle="84.3516"/>
  <outline>
    <contour>
      <point x="458" y="702" type="curve" smooth="yes"/>
      <point x="214" y="702"/>
      <point x="126" y="593"/>
      <point x="93" y="353" type="curve" smooth="yes"/>
      <point x="59" y="105"/>
      <point x="146" y="-12"/>
      <point x="381" y="-12" type="curve" smooth="yes"/>
      <point x="462" y="-12"/>
      <point x="530" y="0"/>
      <point x="582" y="19" type="curve"/>
      <point x="573" y="170" type="line"/>
      <point x="513" y="159"/>
      <point x="418" y="151"/>
      <point x="373" y="159" type="curve" smooth="yes"/>
      <point x="306" y="171"/>
      <point x="302" y="230"/>
      <point x="320" y="353" type="curve" smooth="yes"/>
      <point x="340" y="484"/>
      <point x="362" y="517"/>
      <point x="441" y="527" type="curve" smooth="yes"/>
      <point x="488" y="533"/>
      <point x="598" y="529"/>
      <point x="618" y="527" type="curve"/>
      <point x="643" y="674" type="line"/>
      <point x="600" y="689"/>
      <point x="541" y="702"/>
    </contour>
    <contour>
      <point x="508" y="329" type="line"/>
      <point x="33" y="329" type="line"/>
      <point x="19" y="229" type="line"/>
      <point x="484" y="229" type="line"/>
    </contour>
    <contour>
      <point x="543" y="463" type="line"/>
      <point x="53" y="463" type="line"/>
      <point x="39" y="363" type="line"/>
      <point x="519" y="363" type="line"/>
    </contour>
  </outline>
</glyph>
<glyph name="rupeeIndian" format="2">
  <advance width="600"/>
  <unicode hex="20B9"/>
  <outline>
    <contour>
      <point x="188" y="690" type="curve"/>
      <point x="172" y="569" type="line"/>
      <point x="230" y="569"/>
      <point x="247" y="543"/>
      <point x="247" y="502" type="curve" smooth="yes"/>
      <point x="247" y="420"/>
      <point x="217" y="355"/>
      <point x="142" y="355" type="curve" smooth="yes"/>
      <point x="28" y="355" type="line"/>
      <point x="11" y="233" type="line"/>
      <point x="104" y="230"/>
      <point x="162" y="228"/>
      <point x="200" y="228" type="curve" smooth="yes"/>
      <point x="370" y="228"/>
      <point x="461" y="357"/>
      <point x="461" y="526" type="curve" smooth="yes"/>
      <point x="461" y="640"/>
      <point x="392" y="690"/>
    </contour>
    <contour>
      <point x="654" y="690" type="line"/>
      <point x="75" y="690" type="line"/>
      <point x="58" y="569" type="line"/>
      <point x="613" y="569" type="line"/>
    </contour>
    <contour>
      <point x="597" y="515" type="line"/>
      <point x="51" y="515" type="line"/>
      <point x="35" y="404" type="line"/>
      <point x="557" y="404" type="line"/>
    </contour>
    <contour>
      <point x="346" y="270" type="curve"/>
      <point x="108" y="233" type="line"/>
      <point x="272" y="0" type="line"/>
      <point x="535" y="0" type="line"/>
      <point x="365" y="247" type="line" smooth="yes"/>
      <point x="358" y="257"/>
      <point x="351" y="265"/>
    </contour>
  </outline>
</glyph>
<glyph name="literSign" format="2">
  <advance width="544"/>
  <unicode hex="2113"/>
  <outline>
    <contour>
      <point x="371" y="669" type="curve" smooth="yes"/>
      <point x="219" y="669"/>
      <point x="139" y="601"/>
      <point x="122" y="480" type="curve" smooth="yes"/>
      <point x="77" y="155" type="line" smooth="yes"/>
      <point x="60" y="38"/>
      <point x="116" y="-14"/>
      <point x="225" y="-14" type="curve" smooth="yes"/>
      <point x="273" y="-14"/>
      <point x="331" y="-4"/>
      <point x="398" y="15" type="curve"/>
      <point x="406" y="117" type="line"/>
      <point x="303" y="117" type="line" smooth="yes"/>
      <point x="252" y="117"/>
      <point x="265" y="155"/>
      <point x="272" y="207" type="curve" smooth="yes"/>
      <point x="305" y="441" type="line" smooth="yes"/>
      <point x="311" y="485"/>
      <point x="315" y="510"/>
      <point x="349" y="510" type="curve" smooth="yes"/>
      <point x="378" y="510"/>
      <point x="375" y="482"/>
      <point x="369" y="441" type="curve" smooth="yes"/>
      <point x="362" y="395"/>
      <point x="335" y="373"/>
      <point x="294" y="353" type="curve" smooth="yes"/>
      <point x="223" y="319"/>
      <point x="96" y="281"/>
      <point x="8" y="261" type="curve"/>
      <point x="18" y="116" type="line"/>
      <point x="118" y="138"/>
      <point x="289" y="190"/>
      <point x="382" y="238" type="curve" smooth="yes"/>
      <point x="472" y="284"/>
      <point x="542" y="344"/>
      <point x="561" y="476" type="curve" smooth="yes"/>
      <point x="578" y="601"/>
      <point x="521" y="669"/>
    </contour>
  </outline>
</glyph>
<glyph name="numero" format="2">
  <advance width="1129"/>
  <unicode hex="2116"/>
  <outline>
    <contour>
      <point x="724" y="690" type="line"/>
      <point x="525" y="690" type="line"/>
      <point x="483" y="396" type="line" smooth="yes"/>
      <point x="477" y="357"/>
      <point x="477" y="324"/>
      <point x="481" y="279" type="curve"/>
      <point x="473" y="279" type="line"/>
      <point x="465" y="324"/>
      <point x="460" y="359"/>
      <point x="438" y="408" type="curve" smooth="yes"/>
      <point x="342" y="623" type="line" smooth="yes"/>
      <point x="324" y="662"/>
      <point x="311" y="690"/>
      <point x="266" y="690" type="curve" smooth="yes"/>
      <point x="173" y="690" type="line" smooth="yes"/>
      <point x="124" y="690"/>
      <point x="101" y="668"/>
      <point x="94" y="619" type="curve" smooth="yes"/>
      <point x="7" y="0" type="line"/>
      <point x="206" y="0" type="line"/>
      <point x="249" y="290" type="line" smooth="yes"/>
      <point x="256" y="334"/>
      <point x="256" y="375"/>
      <point x="255" y="418" type="curve"/>
      <point x="262" y="418" type="line"/>
      <point x="267" y="380"/>
      <point x="275" y="333"/>
      <point x="296" y="284" type="curve" smooth="yes"/>
      <point x="388" y="67" type="line" smooth="yes"/>
      <point x="405" y="26"/>
      <point x="420" y="0"/>
      <point x="465" y="0" type="curve" smooth="yes"/>
      <point x="558" y="0" type="line" smooth="yes"/>
      <point x="607" y="0"/>
      <point x="630" y="22"/>
      <point x="637" y="71" type="curve" smooth="yes"/>
    </contour>
    <contour>
      <point x="945" y="476" type="curve" smooth="yes"/>
      <point x="796" y="476"/>
      <point x="737" y="411"/>
      <point x="737" y="252" type="curve" smooth="yes"/>
      <point x="737" y="162"/>
      <point x="801" y="122"/>
      <point x="907" y="122" type="curve" smooth="yes"/>
      <point x="1056" y="122"/>
      <point x="1115" y="187"/>
      <point x="1115" y="347" type="curve" smooth="yes"/>
      <point x="1115" y="438"/>
      <point x="1052" y="476"/>
    </contour>
    <contour>
      <point x="935" y="375" type="curve" smooth="yes"/>
      <point x="952" y="375"/>
      <point x="960" y="364"/>
      <point x="960" y="341" type="curve" smooth="yes"/>
      <point x="960" y="300"/>
      <point x="952" y="224"/>
      <point x="917" y="224" type="curve" smooth="yes"/>
      <point x="899" y="224"/>
      <point x="892" y="235"/>
      <point x="892" y="258" type="curve" smooth="yes"/>
      <point x="892" y="297"/>
      <point x="899" y="375"/>
    </contour>
    <contour>
      <point x="1083" y="87" type="line"/>
      <point x="712" y="87" type="line"/>
      <point x="700" y="0" type="line"/>
      <point x="1071" y="0" type="line"/>
    </contour>
  </outline>
</glyph>
<glyph name="trademark" format="2">
  <advance width="995"/>
  <unicode hex="2122"/>
  <outline>
    <contour>
      <point x="942" y="696" type="curve" smooth="yes"/>
      <point x="814" y="696" type="line" smooth="yes"/>
      <point x="784" y="696"/>
      <point x="766" y="685"/>
      <point x="759" y="656" type="curve" smooth="yes"/>
      <point x="729" y="533" type="line" smooth="yes"/>
      <point x="724" y="514"/>
      <point x="720" y="486"/>
      <point x="716" y="467" type="curve"/>
      <point x="709" y="467" type="line"/>
      <point x="712" y="489"/>
      <point x="714" y="511"/>
      <point x="714" y="533" type="curve" smooth="yes"/>
      <point x="712" y="648" type="line" smooth="yes"/>
      <point x="711" y="677"/>
      <point x="691" y="696"/>
      <point x="662" y="696" type="curve" smooth="yes"/>
      <point x="537" y="696" type="line" smooth="yes"/>
      <point x="505" y="696"/>
      <point x="494" y="683"/>
      <point x="488" y="651" type="curve" smooth="yes"/>
      <point x="429" y="316" type="line"/>
      <point x="559" y="316" type="line"/>
      <point x="607" y="589" type="line"/>
      <point x="616" y="589" type="line"/>
      <point x="619" y="430" type="line" smooth="yes"/>
      <point x="620" y="401"/>
      <point x="641" y="383"/>
      <point x="671" y="383" type="curve" smooth="yes"/>
      <point x="743" y="383" type="line" smooth="yes"/>
      <point x="773" y="383"/>
      <point x="789" y="393"/>
      <point x="797" y="422" type="curve" smooth="yes"/>
      <point x="845" y="589" type="line"/>
      <point x="852" y="589" type="line"/>
      <point x="825" y="316" type="line"/>
      <point x="954" y="316" type="line"/>
      <point x="989" y="643" type="line" smooth="yes"/>
      <point x="992" y="675"/>
      <point x="974" y="696"/>
    </contour>
    <contour>
      <point x="351" y="696" type="line"/>
      <point x="208" y="696" type="line"/>
      <point x="154" y="316" type="line"/>
      <point x="297" y="316" type="line"/>
    </contour>
    <contour>
      <point x="457" y="696" type="line"/>
      <point x="101" y="696" type="line"/>
      <point x="86" y="589" type="line"/>
      <point x="442" y="589" type="line"/>
    </contour>
  </outline>
</glyph>
<glyph name="minus" format="2">
  <advance width="569"/>
  <unicode hex="2212"/>
  <outline>
    <contour>
      <point x="534" y="369" type="line"/>
      <point x="57" y="369" type="line"/>
      <point x="34" y="215" type="line"/>
      <point x="511" y="215" type="line"/>
    </contour>
  </outline>
</glyph>
<glyph name="divisionslash" format="2">
  <advance width="591"/>
  <unicode hex="2215"/>
  <outline>
    <contour>
      <point x="652" y="709" type="line"/>
      <point x="488" y="709" type="line"/>
      <point x="-39" y="-58" type="line"/>
      <point x="125" y="-58" type="line"/>
    </contour>
  </outline>
</glyph>
<glyph name="approxequal" format="2">
  <advance width="585"/>
  <unicode hex="2248"/>
  <outline>
    <contour>
      <point x="178" y="281" type="curve" smooth="yes"/>
      <point x="85" y="290"/>
      <point x="19" y="232"/>
      <point x="32" y="105" type="curve"/>
      <point x="159" y="96" type="line"/>
      <point x="162" y="121"/>
      <point x="165" y="139"/>
      <point x="200" y="135" type="curve" smooth="yes"/>
      <point x="236" y="131"/>
      <point x="333" y="97"/>
      <point x="380" y="95" type="curve" smooth="yes"/>
      <point x="485" y="90"/>
      <point x="537" y="152"/>
      <point x="523" y="271" type="curve"/>
      <point x="397" y="280" type="line"/>
      <point x="393" y="255"/>
      <point x="390" y="233"/>
      <point x="354" y="239" type="curve" smooth="yes"/>
      <point x="324" y="244"/>
      <point x="222" y="277"/>
    </contour>
    <contour>
      <point x="205" y="484" type="curve" smooth="yes"/>
      <point x="112" y="493"/>
      <point x="45" y="435"/>
      <point x="60" y="308" type="curve"/>
      <point x="186" y="299" type="line"/>
      <point x="191" y="325"/>
      <point x="192" y="343"/>
      <point x="228" y="339" type="curve" smooth="yes"/>
      <point x="263" y="335"/>
      <point x="362" y="301"/>
      <point x="407" y="299" type="curve" smooth="yes"/>
      <point x="512" y="294"/>
      <point x="564" y="355"/>
      <point x="551" y="474" type="curve"/>
      <point x="424" y="484" type="line"/>
      <point x="421" y="458"/>
      <point x="417" y="436"/>
      <point x="381" y="442" type="curve" smooth="yes"/>
      <point x="351" y="447"/>
      <point x="249" y="480"/>
    </contour>
  </outline>
</glyph>
<glyph name="lessequal" format="2">
  <advance width="552"/>
  <unicode hex="2264"/>
  <outline>
    <contour>
      <point x="532" y="590" type="line"/>
      <point x="76" y="475" type="line"/>
      <point x="53" y="313" type="line"/>
      <point x="476" y="195" type="line"/>
      <point x="498" y="353" type="line"/>
      <point x="242" y="391" type="line"/>
      <point x="507" y="423" type="line"/>
    </contour>
    <contour>
      <point x="471" y="182" type="line"/>
      <point x="23" y="182" type="line"/>
      <point x="0" y="23" type="line"/>
      <point x="448" y="23" type="line"/>
    </contour>
  </outline>
</glyph>
<glyph name="lozenge" format="2">
  <advance width="575"/>
  <unicode hex="25CA"/>
  <outline>
    <contour>
      <point x="329" y="691" type="curve" smooth="yes"/>
      <point x="30" y="361" type="line" smooth="yes"/>
      <point x="25" y="353"/>
      <point x="29" y="346"/>
      <point x="33" y="338" type="curve" smooth="yes"/>
      <point x="242" y="6" type="line" smooth="yes"/>
      <point x="245" y="-3"/>
      <point x="253" y="-10"/>
      <point x="262" y="-1" type="curve" smooth="yes"/>
      <point x="560" y="331" type="line" smooth="yes"/>
      <point x="565" y="339"/>
      <point x="560" y="346"/>
      <point x="557" y="354" type="curve" smooth="yes"/>
      <point x="349" y="684" type="line" smooth="yes"/>
      <point x="345" y="693"/>
      <point x="337" y="700"/>
    </contour>
    <contour>
      <point x="317" y="488" type="line"/>
      <point x="396" y="346" type="line"/>
      <point x="275" y="204" type="line"/>
      <point x="193" y="346" type="line"/>
    </contour>
  </outline>
</glyph>
<glyph name="Oslash.rvrn" format="2">
  <advance width="700"/>
  <anchor x="415" y="735" name="top"/>
  <outline>
    <contour>
      <point x="283" y="56" type="line"/>
      <point x="133" y="132" type="line"/>
      <point x="31" y="-34" type="line"/>
      <point x="181" y="-111" type="line"/>
    </contour>
    <contour>
      <point x="455" y="667" type="line"/>
      <point x="605" y="591" type="line"/>
      <point x="691" y="735" type="line"/>
      <point x="541" y="811" type="line"/>
    </contour>
    <component base="O"/>
  </outline>
</glyph>
<glyph name="breveacute" format="2">
  <advance width="411"/>
  <anchor x="245" y="532" name="_top"/>
  <outline>
    <contour>
      <point x="352" y="717" type="line"/>
      <point x="348" y="681"/>
      <point x="321" y="660"/>
      <point x="261" y="660" type="curve" smooth="yes"/>
      <point x="204" y="660"/>
      <point x="181" y="673"/>
      <point x="188" y="715" type="curve"/>
      <point x="90" y="710" type="line"/>
      <point x="61" y="621"/>
      <point x="128" y="534"/>
      <point x="252" y="534" type="curve" smooth="yes"/>
      <point x="377" y="534"/>
      <point x="449" y="613"/>
      <point x="446" y="702" type="curve"/>
    </contour>
    <contour>
      <point x="387" y="918" type="line"/>
      <point x="204" y="794" type="line"/>
      <point x="247" y="716" type="line"/>
      <point x="447" y="785" type="line"/>
    </contour>
  </outline>
</glyph>
<glyph name="caroncomb.alt" format="2">
  <anchor x="-141" y="526" name="_top"/>
  <outline>
    <contour>
      <point x="-112" y="717" type="curve" smooth="yes"/>
      <point x="-142" y="717" type="line" smooth="yes"/>
      <point x="-184" y="717"/>
      <point x="-203" y="703"/>
      <point x="-211" y="658" type="curve" smooth="yes"/>
      <point x="-217" y="624" type="line" smooth="yes"/>
      <point x="-223" y="588"/>
      <point x="-210" y="570"/>
      <point x="-173" y="571" type="curve"/>
      <point x="-180" y="533"/>
      <point x="-190" y="499"/>
      <point x="-206" y="462" type="curve"/>
      <point x="-135" y="435" type="line"/>
      <point x="-102" y="478"/>
      <point x="-71" y="547"/>
      <point x="-63" y="605" type="curve" smooth="yes"/>
      <point x="-56" y="653" type="line" smooth="yes"/>
      <point x="-49" y="699"/>
      <point x="-68" y="717"/>
    </contour>
  </outline>
</glyph>
<glyph name="circumflexgrave" format="2">
  <advance width="477"/>
  <anchor x="286" y="550" name="_top"/>
  <outline>
    <contour>
      <point x="363" y="730" type="line"/>
      <point x="222" y="730" type="line"/>
      <point x="94" y="611" type="line"/>
      <point x="142" y="539" type="line"/>
      <point x="284" y="616" type="line"/>
      <point x="292" y="616" type="line"/>
      <point x="419" y="539" type="line"/>
      <point x="474" y="607" type="line"/>
    </contour>
    <contour>
      <point x="30" y="873" type="line"/>
      <point x="-57" y="765" type="line"/>
      <point x="108" y="658" type="line"/>
      <point x="178" y="728" type="line"/>
    </contour>
  </outline>
</glyph>
<glyph name="circumflextilde" format="2">
  <advance width="477"/>
  <anchor x="282" y="550" name="_top"/>
  <outline>
    <contour>
      <point x="363" y="730" type="line"/>
      <point x="222" y="730" type="line"/>
      <point x="94" y="611" type="line"/>
      <point x="142" y="539" type="line"/>
      <point x="284" y="616" type="line"/>
      <point x="292" y="616" type="line"/>
      <point x="419" y="539" type="line"/>
      <point x="474" y="607" type="line"/>
    </contour>
    <contour>
      <point x="213" y="923" type="curve" smooth="yes"/>
      <point x="155" y="923"/>
      <point x="116" y="874"/>
      <point x="121" y="766" type="curve"/>
      <point x="202" y="758" type="line"/>
      <point x="205" y="789"/>
      <point x="212" y="806"/>
      <point x="244" y="799" type="curve" smooth="yes"/>
      <point x="278" y="792"/>
      <point x="345" y="757"/>
      <point x="394" y="757" type="curve" smooth="yes"/>
      <point x="450" y="757"/>
      <point x="489" y="804"/>
      <point x="483" y="914" type="curve"/>
      <point x="402" y="922" type="line"/>
      <point x="400" y="891"/>
      <point x="392" y="873"/>
      <point x="359" y="881" type="curve" smooth="yes"/>
      <point x="327" y="889"/>
      <point x="260" y="923"/>
    </contour>
  </outline>
</glyph>
<glyph name="dollar.rvrn" format="2">
  <advance width="583"/>
  <outline>
    <contour>
      <point x="348" y="704" type="curve" smooth="yes"/>
      <point x="163" y="704"/>
      <point x="75" y="661"/>
      <point x="58" y="509" type="curve" smooth="yes"/>
      <point x="48" y="424"/>
      <point x="67" y="356"/>
      <point x="180" y="297" type="curve" smooth="yes"/>
      <point x="301" y="235" type="line" smooth="yes"/>
      <point x="327" y="223"/>
      <point x="334" y="213"/>
      <point x="330" y="196" type="curve" smooth="yes"/>
      <point x="325" y="175"/>
      <point x="309" y="167"/>
      <point x="254" y="167" type="curve" smooth="yes"/>
      <point x="229" y="167"/>
      <point x="132" y="169"/>
      <point x="21" y="172" type="curve"/>
      <point x="0" y="21" type="line"/>
      <point x="102" y="-6"/>
      <point x="207" y="-14"/>
      <point x="264" y="-14" type="curve" smooth="yes"/>
      <point x="458" y="-14"/>
      <point x="527" y="30"/>
      <point x="545" y="189" type="curve" smooth="yes"/>
      <point x="556" y="291"/>
      <point x="533" y="348"/>
      <point x="423" y="404" type="curve" smooth="yes"/>
      <point x="313" y="459" type="line" smooth="yes"/>
      <point x="274" y="478"/>
      <point x="269" y="489"/>
      <point x="272" y="504" type="curve" smooth="yes"/>
      <point x="276" y="526"/>
      <point x="291" y="532"/>
      <point x="332" y="532" type="curve" smooth="yes"/>
      <point x="415" y="532"/>
      <point x="510" y="531"/>
      <point x="569" y="530" type="curve"/>
      <point x="589" y="668" type="line"/>
      <point x="514" y="694"/>
      <point x="423" y="704"/>
    </contour>
    <contour>
      <point x="304" y="67" type="line"/>
      <point x="149" y="67" type="line"/>
      <point x="106" y="-108" type="line"/>
      <point x="261" y="-108" type="line"/>
    </contour>
    <contour>
      <point x="495" y="791" type="line"/>
      <point x="339" y="791" type="line"/>
      <point x="285" y="591" type="line"/>
      <point x="440" y="591" type="line"/>
    </contour>
  </outline>
</glyph>
<glyph name="dotaccentmacron" format="2">
  <advance width="436"/>
  <anchor x="260" y="556" name="_top"/>
  <outline>
    <contour>
      <point x="446" y="864" type="line"/>
      <point x="155" y="864" type="line"/>
      <point x="139" y="753" type="line"/>
      <point x="430" y="753" type="line"/>
    </contour>
    <contour>
      <point x="303" y="712" type="curve" smooth="yes"/>
      <point x="249" y="712" type="line" smooth="yes"/>
      <point x="218" y="712"/>
      <point x="197" y="695"/>
      <point x="193" y="664" type="curve" smooth="yes"/>
      <point x="187" y="621" type="line" smooth="yes"/>
      <point x="182" y="584"/>
      <point x="199" y="565"/>
      <point x="238" y="565" type="curve" smooth="yes"/>
      <point x="296" y="565" type="line" smooth="yes"/>
      <point x="327" y="565"/>
      <point x="346" y="582"/>
      <point x="350" y="614" type="curve" smooth="yes"/>
      <point x="355" y="658" type="line" smooth="yes"/>
      <point x="359" y="694"/>
      <point x="336" y="712"/>
    </contour>
  </outline>
</glyph>
<glyph name="dotbelow" format="2">
  <advance width="240"/>
  <anchor x="80" y="0" name="_bottom"/>
  <outline>
    <contour>
      <point x="104" y="-27" type="curve" smooth="yes"/>
      <point x="45" y="-27" type="line" smooth="yes"/>
      <point x="11" y="-27"/>
      <point x="-13" y="-45"/>
      <point x="-17" y="-80" type="curve" smooth="yes"/>
      <point x="-23" y="-127" type="line" smooth="yes"/>
      <point x="-28" y="-167"/>
      <point x="-10" y="-188"/>
      <point x="33" y="-188" type="curve" smooth="yes"/>
      <point x="96" y="-188" type="line" smooth="yes"/>
      <point x="131" y="-188"/>
      <point x="152" y="-170"/>
      <point x="156" y="-135" type="curve" smooth="yes"/>
      <point x="161" y="-86" type="line" smooth="yes"/>
      <point x="165" y="-46"/>
      <point x="140" y="-27"/>
    </contour>
  </outline>
</glyph>
<glyph name="eth.rvrn" format="2">
  <advance width="603"/>
  <outline>
    <contour>
      <point x="198" y="698" type="curve"/>
      <point x="175" y="568" type="line"/>
      <point x="380" y="583"/>
      <point x="384" y="505"/>
      <point x="355" y="298" type="curve" smooth="yes"/>
      <point x="337" y="170"/>
      <point x="327" y="130"/>
      <point x="276" y="130" type="curve" smooth="yes"/>
      <point x="229" y="130"/>
      <point x="227" y="150"/>
      <point x="238" y="220" type="curve" smooth="yes"/>
      <point x="249" y="290"/>
      <point x="263" y="321"/>
      <point x="315" y="321" type="curve" smooth="yes"/>
      <point x="363" y="321"/>
      <point x="404" y="291"/>
      <point x="428" y="244" type="curve"/>
      <point x="438" y="322" type="line"/>
      <point x="413" y="439"/>
      <point x="320" y="453"/>
      <point x="257" y="453" type="curve" smooth="yes"/>
      <point x="121" y="453"/>
      <point x="40" y="388"/>
      <point x="18" y="222" type="curve" smooth="yes"/>
      <point x="-4" y="58"/>
      <point x="95" y="-14"/>
      <point x="261" y="-14" type="curve" smooth="yes"/>
      <point x="448" y="-14"/>
      <point x="545" y="58"/>
      <point x="573" y="283" type="curve" smooth="yes"/>
      <point x="610" y="584"/>
      <point x="498" y="717"/>
    </contour>
    <contour>
      <point x="519" y="746" type="line"/>
      <point x="340" y="588" type="line"/>
      <point x="443" y="477" type="line"/>
      <point x="622" y="633" type="line"/>
    </contour>
  </outline>
</glyph>
<glyph name="euro.rvrn" format="2">
  <advance width="642"/>
  <outline>
    <contour>
      <point x="508" y="329" type="line"/>
      <point x="33" y="329" type="line"/>
      <point x="19" y="229" type="line"/>
      <point x="484" y="229" type="line"/>
    </contour>
    <contour>
      <point x="543" y="463" type="line"/>
      <point x="53" y="463" type="line"/>
      <point x="39" y="363" type="line"/>
      <point x="519" y="363" type="line"/>
    </contour>
    <contour>
      <point x="458" y="702" type="curve" smooth="yes"/>
      <point x="238" y="702"/>
      <point x="145" y="614"/>
      <point x="105" y="420" type="curve"/>
      <point x="333" y="420" type="line"/>
      <point x="351" y="496"/>
      <point x="378" y="519"/>
      <point x="441" y="527" type="curve" smooth="yes"/>
      <point x="488" y="533"/>
      <point x="598" y="529"/>
      <point x="618" y="527" type="curve"/>
      <point x="643" y="674" type="line"/>
      <point x="600" y="689"/>
      <point x="541" y="702"/>
    </contour>
    <contour>
      <point x="87" y="286" type="line"/>
      <point x="77" y="84"/>
      <point x="168" y="-12"/>
      <point x="381" y="-12" type="curve" smooth="yes"/>
      <point x="462" y="-12"/>
      <point x="530" y="0"/>
      <point x="582" y="19" type="curve"/>
      <point x="573" y="170" type="line"/>
      <point x="513" y="159"/>
      <point x="418" y="151"/>
      <point x="373" y="159" type="curve" smooth="yes"/>
      <point x="319" y="169"/>
      <point x="306" y="208"/>
      <point x="312" y="286" type="curve"/>
    </contour>
  </outline>
</glyph>
<glyph name="f_f" format="2">
  <advance width="808"/>
  <outline>
    <contour>
      <point x="320" y="714" type="curve" smooth="yes"/>
      <point x="194" y="714"/>
      <point x="144" y="649"/>
      <point x="130" y="555" type="curve" smooth="yes"/>
      <point x="50" y="5" type="line" smooth="yes"/>
      <point x="44" y="-37"/>
      <point x="28" y="-51"/>
      <point x="-14" y="-51" type="curve" smooth="yes"/>
      <point x="-63" y="-51" type="line"/>
      <point x="-95" y="-176" type="line"/>
      <point x="-25" y="-186"/>
      <point x="21" y="-191"/>
      <point x="60" y="-191" type="curve" smooth="yes"/>
      <point x="186" y="-191"/>
      <point x="236" y="-126"/>
      <point x="250" y="-32" type="curve" smooth="yes"/>
      <point x="332" y="518" type="line" smooth="yes"/>
      <point x="338" y="560"/>
      <point x="353" y="574"/>
      <point x="393" y="574" type="curve" smooth="yes"/>
      <point x="453" y="574" type="line"/>
      <point x="485" y="699" type="line"/>
      <point x="442" y="709"/>
      <point x="361" y="714"/>
    </contour>
    <contour>
      <point x="706" y="724" type="curve" smooth="yes"/>
      <point x="580" y="724"/>
      <point x="530" y="659"/>
      <point x="516" y="565" type="curve" smooth="yes"/>
      <point x="434" y="20" type="line" smooth="yes"/>
      <point x="428" y="-22"/>
      <point x="412" y="-36"/>
      <point x="370" y="-36" type="curve" smooth="yes"/>
      <point x="321" y="-36" type="line"/>
      <point x="289" y="-161" type="line"/>
      <point x="359" y="-171"/>
      <point x="405" y="-176"/>
      <point x="444" y="-176" type="curve" smooth="yes"/>
      <point x="570" y="-176"/>
      <point x="620" y="-111"/>
      <point x="634" y="-17" type="curve" smooth="yes"/>
      <point x="718" y="528" type="line" smooth="yes"/>
      <point x="724" y="570"/>
      <point x="739" y="584"/>
      <point x="779" y="584" type="curve" smooth="yes"/>
      <point x="859" y="584" type="line"/>
      <point x="891" y="709" type="line"/>
      <point x="842" y="719"/>
      <point x="751" y="724"/>
    </contour>
    <contour>
      <point x="831" y="500" type="line"/>
      <point x="123" y="500" type="line"/>
      <point x="37" y="495" type="line"/>
      <point x="22" y="374" type="line"/>
      <point x="814" y="374" type="line"/>
    </contour>
  </outline>
</glyph>
<glyph name="f_f_i" format="2">
  <advance width="1101"/>
  <outline>
    <contour>
      <point x="320" y="714" type="curve" smooth="yes"/>
      <point x="194" y="714"/>
      <point x="144" y="649"/>
      <point x="130" y="555" type="curve" smooth="yes"/>
      <point x="50" y="5" type="line" smooth="yes"/>
      <point x="44" y="-37"/>
      <point x="28" y="-51"/>
      <point x="-14" y="-51" type="curve" smooth="yes"/>
      <point x="-63" y="-51" type="line"/>
      <point x="-95" y="-176" type="line"/>
      <point x="-25" y="-186"/>
      <point x="21" y="-191"/>
      <point x="60" y="-191" type="curve" smooth="yes"/>
      <point x="186" y="-191"/>
      <point x="236" y="-126"/>
      <point x="250" y="-32" type="curve" smooth="yes"/>
      <point x="332" y="518" type="line" smooth="yes"/>
      <point x="338" y="560"/>
      <point x="353" y="574"/>
      <point x="393" y="574" type="curve" smooth="yes"/>
      <point x="453" y="574" type="line"/>
      <point x="485" y="699" type="line"/>
      <point x="442" y="709"/>
      <point x="361" y="714"/>
    </contour>
    <contour>
      <point x="706" y="724" type="curve" smooth="yes"/>
      <point x="580" y="724"/>
      <point x="530" y="659"/>
      <point x="516" y="565" type="curve" smooth="yes"/>
      <point x="434" y="20" type="line" smooth="yes"/>
      <point x="428" y="-22"/>
      <point x="412" y="-36"/>
      <point x="370" y="-36" type="curve" smooth="yes"/>
      <point x="321" y="-36" type="line"/>
      <point x="289" y="-161" type="line"/>
      <point x="359" y="-171"/>
      <point x="405" y="-176"/>
      <point x="444" y="-176" type="curve" smooth="yes"/>
      <point x="570" y="-176"/>
      <point x="620" y="-111"/>
      <point x="634" y="-17" type="curve" smooth="yes"/>
      <point x="718" y="528" type="line" smooth="yes"/>
      <point x="724" y="570"/>
      <point x="739" y="584"/>
      <point x="779" y="584" type="curve" smooth="yes"/>
      <point x="829" y="584" type="line"/>
      <point x="861" y="709" type="line"/>
      <point x="821" y="719"/>
      <point x="745" y="724"/>
    </contour>
    <contour>
      <point x="911" y="500" type="line"/>
      <point x="123" y="500" type="line"/>
      <point x="37" y="495" type="line"/>
      <point x="22" y="374" type="line"/>
      <point x="894" y="374" type="line"/>
    </contour>
    <contour>
      <point x="1084" y="500" type="line"/>
      <point x="873" y="500" type="line"/>
      <point x="804" y="0" type="line"/>
      <point x="1014" y="0" type="line"/>
    </contour>
    <contour>
      <point x="1050" y="739" type="curve" smooth="yes"/>
      <point x="963" y="739" type="line" smooth="yes"/>
      <point x="921" y="739"/>
      <point x="904" y="723"/>
      <point x="899" y="681" type="curve" smooth="yes"/>
      <point x="891" y="630" type="line" smooth="yes"/>
      <point x="886" y="588"/>
      <point x="908" y="564"/>
      <point x="950" y="564" type="curve" smooth="yes"/>
      <point x="1038" y="564" type="line" smooth="yes"/>
      <point x="1079" y="564"/>
      <point x="1095" y="580"/>
      <point x="1101" y="622" type="curve" smooth="yes"/>
      <point x="1108" y="673" type="line" smooth="yes"/>
      <point x="1114" y="715"/>
      <point x="1092" y="739"/>
    </contour>
  </outline>
</glyph>
<glyph name="f_y" format="2">
  <advance width="998"/>
  <outline>
    <contour>
      <point x="321" y="724" type="curve" smooth="yes"/>
      <point x="195" y="724"/>
      <point x="145" y="659"/>
      <point x="131" y="565" type="curve" smooth="yes"/>
      <point x="50" y="5" type="line" smooth="yes"/>
      <point x="43" y="-37"/>
      <point x="28" y="-51"/>
      <point x="-14" y="-51" type="curve" smooth="yes"/>
      <point x="-63" y="-51" type="line"/>
      <point x="-95" y="-176" type="line"/>
      <point x="-25" y="-186"/>
      <point x="21" y="-191"/>
      <point x="60" y="-191" type="curve" smooth="yes"/>
      <point x="186" y="-191"/>
      <point x="236" y="-126"/>
      <point x="250" y="-32" type="curve" smooth="yes"/>
      <point x="333" y="528" type="line" smooth="yes"/>
      <point x="339" y="570"/>
      <point x="354" y="584"/>
      <point x="394" y="584" type="curve" smooth="yes"/>
      <point x="474" y="584" type="line"/>
      <point x="506" y="709" type="line"/>
      <point x="457" y="719"/>
      <point x="366" y="724"/>
    </contour>
    <contour>
      <point x="1005" y="500" type="curve"/>
      <point x="780" y="500" type="line"/>
      <point x="754" y="319"/>
      <point x="723" y="202"/>
      <point x="666" y="88" type="curve" smooth="yes"/>
      <point x="594" y="-56"/>
      <point x="526" y="-59"/>
      <point x="429" y="-93" type="curve"/>
      <point x="442" y="-206" type="line"/>
      <point x="611" y="-215"/>
      <point x="736" y="-141"/>
      <point x="831" y="8" type="curve" smooth="yes"/>
      <point x="870" y="69"/>
      <point x="980" y="316"/>
    </contour>
    <contour>
      <point x="716" y="126" type="line"/>
      <point x="660" y="126" type="line" smooth="yes"/>
      <point x="651" y="126"/>
      <point x="644" y="133"/>
      <point x="644" y="142" type="curve"/>
      <point x="639" y="351" type="line" smooth="yes"/>
      <point x="637" y="438"/>
      <point x="594" y="500"/>
      <point x="487" y="500" type="curve" smooth="yes"/>
      <point x="123" y="500" type="line"/>
      <point x="37" y="495" type="line"/>
      <point x="22" y="374" type="line"/>
      <point x="389" y="374" type="line" smooth="yes"/>
      <point x="410" y="374"/>
      <point x="425" y="360"/>
      <point x="428" y="340" type="curve" smooth="yes"/>
      <point x="468" y="53" type="line" smooth="yes"/>
      <point x="472" y="23"/>
      <point x="497" y="0"/>
      <point x="530" y="0" type="curve" smooth="yes"/>
      <point x="675" y="0" type="line"/>
    </contour>
  </outline>
</glyph>
<glyph name="horn" format="2">
  <advance width="311"/>
  <anchor x="139" y="561" name="_top"/>
  <outline>
    <contour>
      <point x="69" y="379" type="line"/>
      <point x="185" y="366"/>
      <point x="280" y="427"/>
      <point x="302" y="540" type="curve"/>
      <point x="180" y="556" type="line"/>
      <point x="169" y="511"/>
      <point x="132" y="464"/>
      <point x="80" y="462" type="curve"/>
    </contour>
  </outline>
</glyph>
<glyph name="macronacute" format="2">
  <advance width="400"/>
  <anchor x="248" y="563" name="_top"/>
  <outline>
    <contour>
      <point x="422" y="693" type="line"/>
      <point x="102" y="693" type="line"/>
      <point x="85" y="570" type="line"/>
      <point x="405" y="570" type="line"/>
    </contour>
    <contour>
      <point x="316" y="948" type="line"/>
      <point x="161" y="791" type="line"/>
      <point x="218" y="723" type="line"/>
      <point x="401" y="829" type="line"/>
    </contour>
  </outline>
</glyph>
<glyph name="macrondieresis" format="2">
  <advance width="436"/>
  <anchor x="262" y="551" name="_top"/>
  <outline>
    <contour>
      <point x="250" y="848" type="curve" smooth="yes"/>
      <point x="180" y="848" type="line" smooth="yes"/>
      <point x="157" y="848"/>
      <point x="148" y="839"/>
      <point x="145" y="816" type="curve" smooth="yes"/>
      <point x="135" y="749" type="line" smooth="yes"/>
      <point x="132" y="729"/>
      <point x="141" y="719"/>
      <point x="162" y="719" type="curve" smooth="yes"/>
      <point x="236" y="719" type="line" smooth="yes"/>
      <point x="257" y="719"/>
      <point x="264" y="728"/>
      <point x="267" y="749" type="curve" smooth="yes"/>
      <point x="277" y="818" type="line" smooth="yes"/>
      <point x="280" y="838"/>
      <point x="272" y="848"/>
    </contour>
    <contour>
      <point x="422" y="848" type="curve" smooth="yes"/>
      <point x="349" y="848" type="line" smooth="yes"/>
      <point x="329" y="848"/>
      <point x="320" y="839"/>
      <point x="317" y="817" type="curve" smooth="yes"/>
      <point x="307" y="749" type="line" smooth="yes"/>
      <point x="304" y="729"/>
      <point x="313" y="719"/>
      <point x="334" y="719" type="curve" smooth="yes"/>
      <point x="407" y="719" type="line" smooth="yes"/>
      <point x="428" y="719"/>
      <point x="436" y="728"/>
      <point x="439" y="749" type="curve" smooth="yes"/>
      <point x="449" y="818" type="line" smooth="yes"/>
      <point x="452" y="838"/>
      <point x="443" y="848"/>
    </contour>
    <contour>
      <point x="424" y="671" type="line"/>
      <point x="133" y="671" type="line"/>
      <point x="117" y="560" type="line"/>
      <point x="408" y="560" type="line"/>
    </contour>
  </outline>
</glyph>
<glyph name="notequal.BRACKET.144" format="2">
  <advance width="608"/>
  <outline>
    <contour>
      <point x="299" y="162" type="line"/>
      <point x="189" y="206" type="line"/>
      <point x="112" y="37" type="line"/>
      <point x="220" y="-10" type="line"/>
    </contour>
    <contour>
      <point x="295" y="436" type="line"/>
      <point x="404" y="392" type="line"/>
      <point x="485" y="564" type="line"/>
      <point x="375" y="614" type="line"/>
    </contour>
    <component base="equal" xOffset="18"/>
  </outline>
</glyph>
<glyph name="one.tf" format="2">
  <advance width="620"/>
  <outline>
    <contour>
      <point x="566" y="152" type="line"/>
      <point x="50" y="152" type="line"/>
      <point x="29" y="0" type="line"/>
      <point x="545" y="0" type="line"/>
    </contour>
    <contour>
      <point x="493" y="690" type="line"/>
      <point x="277" y="690" type="line"/>
      <point x="92" y="623" type="line"/>
      <point x="98" y="490" type="line"/>
      <point x="262" y="521" type="line"/>
      <point x="251" y="491"/>
      <point x="245" y="462"/>
      <point x="241" y="432" type="curve" smooth="yes"/>
      <point x="181" y="0" type="line"/>
      <point x="397" y="0" type="line"/>
    </contour>
  </outline>
</glyph>
<glyph name="one.tosf" format="2">
  <advance width="620"/>
  <outline>
    <contour>
      <point x="554" y="152" type="line"/>
      <point x="58" y="152" type="line"/>
      <point x="36" y="0" type="line"/>
      <point x="532" y="0" type="line"/>
    </contour>
    <contour>
      <point x="479" y="549" type="line"/>
      <point x="263" y="549" type="line"/>
      <point x="86" y="485" type="line"/>
      <point x="92" y="352" type="line"/>
      <point x="247" y="380" type="line"/>
      <point x="236" y="350"/>
      <point x="230" y="321"/>
      <point x="226" y="291" type="curve" smooth="yes"/>
      <point x="185" y="0" type="line"/>
      <point x="401" y="0" type="line"/>
    </contour>
  </outline>
</glyph>
<glyph name="oslash.rvrn" format="2">
  <advance width="615"/>
  <anchor x="346" y="547" name="top"/>
  <outline>
    <contour>
      <point x="263" y="29" type="line"/>
      <point x="134" y="102" type="line"/>
      <point x="49" y="-35" type="line"/>
      <point x="179" y="-106" type="line"/>
    </contour>
    <contour>
      <point x="366" y="484" type="line"/>
      <point x="495" y="411" type="line"/>
      <point x="575" y="539" type="line"/>
      <point x="445" y="611" type="line"/>
    </contour>
    <component base="o"/>
  </outline>
</glyph>
<glyph name="peseta.rvrn" format="2">
  <advance width="680"/>
  <outline>
    <contour>
      <point x="369" y="700" type="curve" smooth="yes"/>
      <point x="286" y="700"/>
      <point x="226" y="699"/>
      <point x="136" y="690" type="curve"/>
      <point x="138" y="541" type="line"/>
      <point x="171" y="545"/>
      <point x="272" y="547"/>
      <point x="364" y="547" type="curve" smooth="yes"/>
      <point x="413" y="547"/>
      <point x="422" y="529"/>
      <point x="414" y="473" type="curve" smooth="yes"/>
      <point x="402" y="392"/>
      <point x="387" y="385"/>
      <point x="336" y="385" type="curve" smooth="yes"/>
      <point x="292" y="385"/>
      <point x="190" y="385"/>
      <point x="100" y="385" type="curve"/>
      <point x="94" y="289" type="line"/>
      <point x="123" y="267"/>
      <point x="265" y="232"/>
      <point x="355" y="232" type="curve" smooth="yes"/>
      <point x="536" y="232"/>
      <point x="604" y="279"/>
      <point x="628" y="457" type="curve" smooth="yes"/>
      <point x="653" y="645"/>
      <point x="580" y="700"/>
    </contour>
    <contour>
      <point x="352" y="690" type="line"/>
      <point x="136" y="690" type="line"/>
      <point x="39" y="0" type="line"/>
      <point x="255" y="0" type="line"/>
    </contour>
    <contour>
      <point x="530" y="508" type="line"/>
      <point x="522" y="428" type="line"/>
      <point x="695" y="428" type="line"/>
      <point x="712" y="508" type="line"/>
    </contour>
    <contour>
      <point x="244" y="428" type="line"/>
      <point x="251.997" y="508" type="line"/>
      <point x="40" y="508" type="line"/>
      <point x="30" y="428" type="line"/>
    </contour>
  </outline>
</glyph>
<glyph name="seven.osf" format="2">
  <advance width="518"/>
  <outline>
    <contour>
      <point x="470" y="530" type="curve" smooth="yes"/>
      <point x="51" y="530" type="line"/>
      <point x="36" y="357" type="line"/>
      <point x="302" y="357" type="line"/>
      <point x="279" y="331"/>
      <point x="266" y="304"/>
      <point x="253" y="278" type="curve" smooth="yes"/>
      <point x="36" y="-140" type="line"/>
      <point x="247" y="-140" type="line"/>
      <point x="533" y="429" type="line" smooth="yes"/>
      <point x="560" y="483"/>
      <point x="528" y="530"/>
    </contour>
  </outline>
</glyph>
<glyph name="yen.rvrn" format="2">
  <advance width="705"/>
  <outline>
    <contour>
      <point x="594" y="228" type="line"/>
      <point x="87" y="228" type="line"/>
      <point x="75" y="128" type="line"/>
      <point x="580" y="128" type="line"/>
    </contour>
    <contour>
      <point x="612" y="358" type="line"/>
      <point x="105" y="358" type="line"/>
      <point x="93" y="258" type="line"/>
      <point x="598" y="258" type="line"/>
    </contour>
    <contour>
      <point x="224" y="172" type="line"/>
      <point x="200" y="0" type="line"/>
      <point x="418" y="0" type="line"/>
      <point x="442" y="172" type="line"/>
    </contour>
    <contour>
      <point x="741" y="690" type="line"/>
      <point x="510" y="690" type="line"/>
      <point x="394" y="467" type="line" smooth="yes"/>
      <point x="378" y="434"/>
      <point x="367" y="396"/>
      <point x="364" y="368" type="curve"/>
      <point x="349" y="368" type="line"/>
      <point x="350" y="399"/>
      <point x="351" y="429"/>
      <point x="343" y="469" type="curve" smooth="yes"/>
      <point x="290" y="690" type="line"/>
      <point x="74" y="690" type="line"/>
      <point x="201" y="312" type="line"/>
      <point x="509" y="312" type="line"/>
    </contour>
  </outline>
</glyph>
<glyph name="zero.osf" format="2">
  <advance width="640"/>
  <outline>
    <contour>
      <point x="361" y="547" type="curve" smooth="yes"/>
      <point x="139" y="547"/>
      <point x="22" y="413"/>
      <point x="22" y="203" type="curve" smooth="yes"/>
      <point x="22" y="44"/>
      <point x="128" y="-14"/>
      <point x="283" y="-14" type="curve" smooth="yes"/>
      <point x="506" y="-14"/>
      <point x="623" y="120"/>
      <point x="623" y="330" type="curve" smooth="yes"/>
      <point x="623" y="489"/>
      <point x="517" y="547"/>
    </contour>
    <contour>
      <point x="338" y="386" type="curve" smooth="yes"/>
      <point x="383" y="386"/>
      <point x="407" y="371"/>
      <point x="407" y="313" type="curve" smooth="yes"/>
      <point x="407" y="228"/>
      <point x="389" y="147"/>
      <point x="307" y="147" type="curve" smooth="yes"/>
      <point x="262" y="147"/>
      <point x="238" y="162"/>
      <point x="238" y="220" type="curve" smooth="yes"/>
      <point x="238" y="305"/>
      <point x="256" y="386"/>
    </contour>
  </outline>
</glyph>
